<svg xmlns="http://www.w3.org/2000/svg" xmlns:xlink="http://www.w3.org/1999/xlink" width="40" zoomAndPan="magnify" viewBox="0 0 30 30.000001" height="40" preserveAspectRatio="xMidYMid meet" version="1.0"><defs><clipPath id="dc489e4927"><path d="M 16 13.511719 L 20.703125 13.511719 L 20.703125 18.453125 L 16 18.453125 Z M 16 13.511719 " clip-rule="nonzero"/></clipPath><clipPath id="9a85a4df4c"><path d="M 18 16 L 20.703125 16 L 20.703125 18 L 18 18 Z M 18 16 " clip-rule="nonzero"/></clipPath><clipPath id="2655775a69"><path d="M 17 14 L 20.703125 14 L 20.703125 18 L 17 18 Z M 17 14 " clip-rule="nonzero"/></clipPath><clipPath id="a24d3cbc3e"><path d="M 19 14 L 20.703125 14 L 20.703125 16 L 19 16 Z M 19 14 " clip-rule="nonzero"/></clipPath><clipPath id="b075c8568f"><path d="M 17 13.511719 L 20 13.511719 L 20 16 L 17 16 Z M 17 13.511719 " clip-rule="nonzero"/></clipPath><clipPath id="d1c92fe82b"><path d="M 18 13.511719 L 19 13.511719 L 19 15 L 18 15 Z M 18 13.511719 " clip-rule="nonzero"/></clipPath><clipPath id="3eacbe379e"><path d="M 17 13.511719 L 18 13.511719 L 18 15 L 17 15 Z M 17 13.511719 " clip-rule="nonzero"/></clipPath><clipPath id="84dd748f56"><path d="M 13.476562 14 L 17 14 L 17 18.453125 L 13.476562 18.453125 Z M 13.476562 14 " clip-rule="nonzero"/></clipPath><clipPath id="0ea3ce3085"><path d="M 13.476562 15 L 15 15 L 15 17 L 13.476562 17 Z M 13.476562 15 " clip-rule="nonzero"/></clipPath><clipPath id="fc5a34f783"><path d="M 16 13.511719 L 17 13.511719 L 17 14 L 16 14 Z M 16 13.511719 " clip-rule="nonzero"/></clipPath><clipPath id="d2e50b7bd6"><path d="M 13.476562 14 L 14 14 L 14 16 L 13.476562 16 Z M 13.476562 14 " clip-rule="nonzero"/></clipPath><clipPath id="775aeed7a0"><path d="M 19 13.511719 L 20.703125 13.511719 L 20.703125 15 L 19 15 Z M 19 13.511719 " clip-rule="nonzero"/></clipPath><clipPath id="073f3de51e"><path d="M 16 18 L 17 18 L 17 18.453125 L 16 18.453125 Z M 16 18 " clip-rule="nonzero"/></clipPath></defs><g clip-path="url(#dc489e4927)"><path fill="#333333" d="M 18.292969 13.621094 C 18.585938 13.449219 19.007812 13.53125 19.167969 13.898438 C 19.234375 14.046875 19.222656 14.234375 19.175781 14.359375 L 19.214844 14.445312 L 19.539062 14.308594 C 19.785156 14.203125 20.097656 14.273438 20.203125 14.515625 L 20.589844 15.398438 C 20.695312 15.640625 20.527344 15.910156 20.28125 16.015625 L 19.957031 16.152344 L 20.171875 16.648438 C 20.21875 16.628906 20.28125 16.613281 20.3125 16.683594 L 20.472656 17.054688 C 20.492188 17.097656 20.472656 17.144531 20.429688 17.164062 L 18.425781 18.011719 C 18.382812 18.03125 18.332031 18.007812 18.316406 17.96875 L 18.152344 17.597656 C 18.125 17.527344 18.175781 17.496094 18.226562 17.472656 L 17.261719 15.261719 C 17.214844 15.253906 17.148438 15.21875 17.0625 15.132812 C 16.773438 14.832031 16.863281 14.335938 17.261719 14.164062 C 17.300781 13.703125 17.832031 13.371094 18.292969 13.621094 Z M 19.585938 15.300781 L 19.789062 15.765625 L 20.109375 15.628906 C 20.207031 15.589844 20.1875 15.546875 20.148438 15.457031 L 20.003906 15.121094 L 19.859375 14.789062 C 19.820312 14.699219 19.800781 14.65625 19.707031 14.699219 L 19.382812 14.835938 Z M 19.585938 15.300781 " fill-opacity="1" fill-rule="nonzero"/></g><g clip-path="url(#9a85a4df4c)"><path fill="#ffffff" d="M 20.28125 17.042969 L 20.1875 16.824219 L 18.34375 17.605469 L 18.4375 17.824219 Z M 20.28125 17.042969 " fill-opacity="1" fill-rule="nonzero"/><path fill="#cccccc" d="M 20.300781 17.035156 L 20.207031 16.816406 L 19.8125 16.984375 C 19.878906 17.066406 19.746094 17.128906 19.6875 17.152344 L 18.40625 17.695312 L 18.457031 17.816406 Z M 20.300781 17.035156 " fill-opacity="1" fill-rule="nonzero"/></g><g clip-path="url(#2655775a69)"><path fill="#f1c40f" d="M 20.015625 16.714844 L 19.050781 14.5 L 18.320312 14.800781 C 18.394531 14.980469 18.488281 15.125 18.363281 15.25 C 18.261719 15.351562 18.074219 15.355469 18 15.195312 L 17.898438 14.976562 L 17.863281 14.992188 L 18.105469 15.550781 C 18.222656 15.816406 17.8125 15.996094 17.699219 15.734375 L 17.457031 15.179688 L 17.417969 15.195312 L 18.382812 17.40625 Z M 20.015625 16.714844 " fill-opacity="1" fill-rule="nonzero"/></g><g clip-path="url(#a24d3cbc3e)"><path fill="#ffffff" d="M 19.605469 14.464844 L 19.28125 14.601562 L 19.316406 14.679688 L 19.640625 14.542969 C 19.726562 14.503906 19.914062 14.488281 19.96875 14.613281 L 20.351562 15.5 C 20.40625 15.625 20.265625 15.746094 20.179688 15.785156 L 19.855469 15.921875 L 19.890625 16 L 20.210938 15.863281 C 20.375 15.792969 20.5 15.621094 20.433594 15.464844 L 20.046875 14.582031 C 19.980469 14.425781 19.765625 14.394531 19.605469 14.464844 Z M 19.605469 14.464844 " fill-opacity="1" fill-rule="nonzero"/></g><g clip-path="url(#b075c8568f)"><path fill="#ffffff" d="M 18.1875 14.011719 C 18.15625 14.117188 17.992188 14.070312 18.023438 13.964844 C 18.050781 13.875 18.09375 13.800781 18.148438 13.738281 C 17.738281 13.578125 17.285156 13.992188 17.476562 14.433594 C 17.519531 14.535156 17.363281 14.601562 17.320312 14.5 C 17.296875 14.449219 17.28125 14.398438 17.269531 14.347656 C 17 14.511719 16.992188 14.910156 17.261719 15.078125 C 17.269531 15.074219 17.273438 15.074219 17.28125 15.070312 C 17.402344 15.023438 17.53125 14.929688 17.578125 15.035156 L 17.855469 15.667969 C 17.878906 15.726562 17.976562 15.679688 17.949219 15.617188 L 17.675781 14.980469 C 17.628906 14.875 17.785156 14.84375 17.910156 14.792969 C 17.953125 14.773438 18 14.792969 18.019531 14.835938 L 18.15625 15.125 C 18.179688 15.183594 18.277344 15.140625 18.25 15.078125 L 18.132812 14.789062 C 18.117188 14.746094 18.136719 14.699219 18.179688 14.679688 L 18.988281 14.347656 C 19.027344 14.261719 19.089844 14.144531 19.011719 13.964844 C 18.847656 13.589844 18.300781 13.625 18.1875 14.011719 Z M 18.1875 14.011719 " fill-opacity="1" fill-rule="nonzero"/></g><g clip-path="url(#d1c92fe82b)"><path fill="#333333" d="M 18.484375 13.9375 C 18.429688 13.980469 18.3125 13.886719 18.496094 13.808594 C 18.8125 13.671875 19.039062 14.070312 18.90625 14.097656 C 18.808594 14.117188 18.875 13.964844 18.707031 13.898438 C 18.628906 13.871094 18.546875 13.882812 18.484375 13.9375 Z M 18.484375 13.9375 " fill-opacity="1" fill-rule="nonzero"/></g><g clip-path="url(#3eacbe379e)"><path fill="#333333" d="M 17.628906 14.203125 C 17.640625 14.269531 17.539062 14.285156 17.527344 14.21875 C 17.476562 13.917969 17.839844 13.746094 17.867188 13.867188 C 17.882812 13.957031 17.742188 13.890625 17.65625 14.046875 C 17.632812 14.09375 17.621094 14.148438 17.628906 14.203125 Z M 17.628906 14.203125 " fill-opacity="1" fill-rule="nonzero"/></g><path fill="#333333" d="M 19.164062 16.984375 C 19.0625 17.027344 18.996094 16.875 19.097656 16.832031 L 19.679688 16.585938 L 19.554688 16.292969 C 19.511719 16.191406 19.667969 16.125 19.710938 16.226562 L 19.871094 16.59375 C 19.890625 16.636719 19.871094 16.6875 19.828125 16.707031 Z M 19.164062 16.984375 " fill-opacity="1" fill-rule="nonzero"/><path fill="#ffffff" d="M 18.582031 14.785156 L 19.007812 14.605469 L 19.710938 16.226562 C 19.667969 16.125 19.511719 16.191406 19.554688 16.292969 L 19.679688 16.585938 L 19.414062 16.699219 Z M 18.582031 14.785156 " fill-opacity="0.62" fill-rule="evenodd"/><path fill="#ffffff" d="M 18.382812 16.871094 C 18.433594 16.851562 18.488281 16.875 18.507812 16.921875 C 18.527344 16.96875 18.507812 17.023438 18.457031 17.042969 C 18.410156 17.0625 18.355469 17.042969 18.335938 16.996094 C 18.3125 16.949219 18.335938 16.894531 18.382812 16.871094 Z M 18.382812 16.871094 " fill-opacity="0.62" fill-rule="evenodd"/><path fill="#ffffff" d="M 18.710938 16.714844 C 18.738281 16.703125 18.769531 16.714844 18.78125 16.742188 C 18.789062 16.769531 18.777344 16.796875 18.753906 16.808594 C 18.726562 16.820312 18.695312 16.808594 18.683594 16.78125 C 18.675781 16.757812 18.6875 16.726562 18.710938 16.714844 Z M 18.710938 16.714844 " fill-opacity="0.62" fill-rule="evenodd"/><path fill="#ffffff" d="M 18.742188 16.957031 C 18.769531 16.945312 18.800781 16.957031 18.8125 16.984375 C 18.824219 17.011719 18.808594 17.039062 18.785156 17.050781 C 18.757812 17.0625 18.726562 17.050781 18.714844 17.023438 C 18.703125 17 18.714844 16.96875 18.742188 16.957031 Z M 18.742188 16.957031 " fill-opacity="0.62" fill-rule="evenodd"/><path fill="#ffffff" d="M 18.597656 16.847656 C 18.613281 16.839844 18.636719 16.847656 18.640625 16.863281 C 18.648438 16.882812 18.640625 16.902344 18.625 16.910156 C 18.609375 16.914062 18.585938 16.90625 18.582031 16.890625 C 18.574219 16.875 18.582031 16.855469 18.597656 16.847656 Z M 18.597656 16.847656 " fill-opacity="0.62" fill-rule="evenodd"/><path fill="#ffffff" d="M 18.550781 17.082031 C 18.582031 17.070312 18.617188 17.085938 18.628906 17.113281 C 18.640625 17.140625 18.628906 17.175781 18.597656 17.1875 C 18.566406 17.203125 18.535156 17.1875 18.519531 17.160156 C 18.507812 17.128906 18.523438 17.097656 18.550781 17.082031 Z M 18.550781 17.082031 " fill-opacity="0.62" fill-rule="evenodd"/><g clip-path="url(#84dd748f56)"><path fill="#333333" d="M 15.589844 14.542969 C 15.359375 14.410156 15.027344 14.472656 14.902344 14.761719 C 14.847656 14.882812 14.859375 15.027344 14.894531 15.125 L 14.863281 15.195312 L 14.609375 15.089844 C 14.414062 15.003906 14.167969 15.058594 14.082031 15.25 L 13.78125 15.945312 C 13.699219 16.136719 13.828125 16.351562 14.023438 16.433594 L 14.277344 16.542969 L 14.109375 16.933594 C 14.070312 16.917969 14.023438 16.90625 14 16.957031 L 13.871094 17.25 C 13.855469 17.285156 13.871094 17.324219 13.90625 17.339844 L 15.484375 18.007812 C 15.519531 18.019531 15.558594 18.003906 15.574219 17.972656 L 15.699219 17.679688 C 15.722656 17.625 15.683594 17.597656 15.644531 17.582031 L 16.402344 15.839844 C 16.441406 15.832031 16.492188 15.804688 16.558594 15.734375 C 16.789062 15.5 16.714844 15.109375 16.402344 14.972656 C 16.371094 14.609375 15.953125 14.347656 15.589844 14.542969 Z M 14.570312 15.867188 L 14.410156 16.234375 L 14.15625 16.128906 C 14.082031 16.09375 14.097656 16.0625 14.128906 15.992188 L 14.355469 15.46875 C 14.386719 15.394531 14.398438 15.359375 14.476562 15.394531 L 14.730469 15.5 Z M 14.570312 15.867188 " fill-opacity="1" fill-rule="nonzero"/></g><path fill="#ffffff" d="M 14.023438 17.242188 L 14.097656 17.070312 L 15.550781 17.6875 L 15.476562 17.859375 Z M 14.023438 17.242188 " fill-opacity="1" fill-rule="nonzero"/><path fill="#cccccc" d="M 14.007812 17.234375 L 14.082031 17.066406 L 14.390625 17.195312 C 14.339844 17.261719 14.445312 17.308594 14.492188 17.328125 L 15.503906 17.757812 L 15.460938 17.851562 Z M 14.007812 17.234375 " fill-opacity="1" fill-rule="nonzero"/><path fill="#f1c40f" d="M 14.230469 16.984375 L 14.992188 15.238281 L 15.566406 15.476562 C 15.511719 15.617188 15.433594 15.730469 15.535156 15.828125 C 15.613281 15.910156 15.765625 15.910156 15.820312 15.785156 L 15.898438 15.613281 L 15.929688 15.625 L 15.738281 16.066406 C 15.644531 16.277344 15.96875 16.417969 16.058594 16.210938 L 16.25 15.773438 L 16.28125 15.785156 L 15.519531 17.53125 Z M 14.230469 16.984375 " fill-opacity="1" fill-rule="nonzero"/><g clip-path="url(#0ea3ce3085)"><path fill="#ffffff" d="M 14.554688 15.210938 L 14.8125 15.316406 L 14.785156 15.378906 L 14.53125 15.273438 C 14.460938 15.242188 14.3125 15.230469 14.269531 15.328125 L 13.964844 16.023438 C 13.921875 16.125 14.035156 16.21875 14.105469 16.25 L 14.359375 16.359375 L 14.332031 16.417969 L 14.078125 16.3125 C 13.949219 16.257812 13.851562 16.121094 13.902344 16 L 14.207031 15.300781 C 14.261719 15.179688 14.425781 15.15625 14.554688 15.210938 Z M 14.554688 15.210938 " fill-opacity="1" fill-rule="nonzero"/></g><path fill="#ffffff" d="M 15.675781 14.851562 C 15.699219 14.9375 15.828125 14.898438 15.800781 14.816406 C 15.78125 14.746094 15.746094 14.683594 15.703125 14.636719 C 16.027344 14.511719 16.386719 14.839844 16.234375 15.183594 C 16.199219 15.265625 16.324219 15.316406 16.359375 15.234375 C 16.375 15.195312 16.386719 15.15625 16.394531 15.117188 C 16.609375 15.246094 16.613281 15.558594 16.402344 15.695312 C 16.398438 15.691406 16.394531 15.691406 16.386719 15.6875 C 16.292969 15.648438 16.191406 15.578125 16.152344 15.660156 L 15.9375 16.15625 C 15.917969 16.203125 15.839844 16.167969 15.859375 16.117188 L 16.078125 15.617188 C 16.113281 15.535156 15.988281 15.507812 15.890625 15.46875 C 15.859375 15.453125 15.820312 15.46875 15.804688 15.503906 L 15.699219 15.730469 C 15.679688 15.777344 15.601562 15.742188 15.625 15.691406 L 15.714844 15.464844 C 15.730469 15.433594 15.714844 15.394531 15.679688 15.378906 L 15.042969 15.117188 C 15.011719 15.050781 14.960938 14.957031 15.023438 14.816406 C 15.152344 14.519531 15.582031 14.550781 15.675781 14.851562 Z M 15.675781 14.851562 " fill-opacity="1" fill-rule="nonzero"/><path fill="#333333" d="M 15.441406 14.792969 C 15.484375 14.828125 15.574219 14.753906 15.429688 14.691406 C 15.179688 14.585938 15.003906 14.902344 15.109375 14.921875 C 15.183594 14.9375 15.132812 14.8125 15.261719 14.765625 C 15.324219 14.742188 15.390625 14.75 15.441406 14.792969 Z M 15.441406 14.792969 " fill-opacity="1" fill-rule="nonzero"/><path fill="#333333" d="M 16.113281 15.003906 C 16.105469 15.054688 16.1875 15.070312 16.195312 15.015625 C 16.234375 14.78125 15.945312 14.640625 15.925781 14.738281 C 15.914062 14.808594 16.023438 14.757812 16.089844 14.882812 C 16.113281 14.917969 16.121094 14.960938 16.113281 15.003906 Z M 16.113281 15.003906 " fill-opacity="1" fill-rule="nonzero"/><path fill="#333333" d="M 14.902344 17.199219 C 14.984375 17.230469 15.035156 17.109375 14.957031 17.074219 L 14.496094 16.882812 L 14.59375 16.652344 C 14.628906 16.570312 14.507812 16.519531 14.472656 16.597656 L 14.34375 16.890625 C 14.332031 16.921875 14.347656 16.960938 14.378906 16.976562 Z M 14.902344 17.199219 " fill-opacity="1" fill-rule="nonzero"/><path fill="#ffffff" d="M 15.363281 15.460938 L 15.027344 15.320312 L 14.472656 16.597656 C 14.507812 16.519531 14.628906 16.570312 14.59375 16.652344 L 14.496094 16.882812 L 14.707031 16.972656 Z M 15.363281 15.460938 " fill-opacity="0.62" fill-rule="evenodd"/><path fill="#ffffff" d="M 15.519531 17.109375 C 15.480469 17.09375 15.4375 17.109375 15.421875 17.148438 C 15.40625 17.183594 15.421875 17.226562 15.460938 17.242188 C 15.496094 17.257812 15.542969 17.242188 15.558594 17.203125 C 15.574219 17.167969 15.554688 17.125 15.519531 17.109375 Z M 15.519531 17.109375 " fill-opacity="0.62" fill-rule="evenodd"/><path fill="#ffffff" d="M 15.257812 16.984375 C 15.238281 16.976562 15.214844 16.984375 15.207031 17.003906 C 15.199219 17.027344 15.207031 17.050781 15.226562 17.058594 C 15.25 17.066406 15.273438 17.058594 15.28125 17.035156 C 15.289062 17.015625 15.28125 16.992188 15.257812 16.984375 Z M 15.257812 16.984375 " fill-opacity="0.62" fill-rule="evenodd"/><path fill="#ffffff" d="M 15.234375 17.175781 C 15.214844 17.167969 15.191406 17.175781 15.179688 17.195312 C 15.171875 17.21875 15.183594 17.242188 15.203125 17.25 C 15.222656 17.257812 15.25 17.25 15.257812 17.230469 C 15.265625 17.207031 15.257812 17.183594 15.234375 17.175781 Z M 15.234375 17.175781 " fill-opacity="0.62" fill-rule="evenodd"/><path fill="#ffffff" d="M 15.351562 17.089844 C 15.335938 17.082031 15.320312 17.089844 15.316406 17.101562 C 15.308594 17.117188 15.316406 17.132812 15.328125 17.136719 C 15.34375 17.140625 15.359375 17.136719 15.363281 17.121094 C 15.371094 17.109375 15.363281 17.09375 15.351562 17.089844 Z M 15.351562 17.089844 " fill-opacity="0.62" fill-rule="evenodd"/><path fill="#ffffff" d="M 15.386719 17.273438 C 15.363281 17.265625 15.335938 17.273438 15.324219 17.296875 C 15.316406 17.320312 15.328125 17.347656 15.351562 17.359375 C 15.375 17.367188 15.398438 17.355469 15.410156 17.332031 C 15.421875 17.3125 15.410156 17.285156 15.386719 17.273438 Z M 15.386719 17.273438 " fill-opacity="0.62" fill-rule="evenodd"/><g clip-path="url(#fc5a34f783)"><path fill="#f1c40f" d="M 16.742188 13.742188 C 16.601562 13.742188 16.484375 13.628906 16.484375 13.488281 C 16.484375 13.628906 16.371094 13.742188 16.230469 13.742188 C 16.371094 13.742188 16.484375 13.855469 16.484375 13.996094 C 16.484375 13.855469 16.601562 13.742188 16.742188 13.742188 Z M 16.742188 13.742188 " fill-opacity="1" fill-rule="nonzero"/></g><path fill="#f1c40f" d="M 17.300781 16.699219 C 17.191406 16.699219 17.105469 16.613281 17.105469 16.503906 C 17.105469 16.613281 17.015625 16.699219 16.90625 16.699219 C 17.015625 16.699219 17.105469 16.789062 17.105469 16.894531 C 17.105469 16.789062 17.191406 16.699219 17.300781 16.699219 Z M 17.300781 16.699219 " fill-opacity="1" fill-rule="nonzero"/><g clip-path="url(#d2e50b7bd6)"><path fill="#f1c40f" d="M 13.820312 14.9375 C 13.71875 14.9375 13.636719 14.859375 13.636719 14.761719 C 13.636719 14.859375 13.558594 14.9375 13.457031 14.9375 C 13.558594 14.9375 13.636719 15.019531 13.636719 15.117188 C 13.636719 15.019531 13.71875 14.9375 13.820312 14.9375 Z M 13.820312 14.9375 " fill-opacity="1" fill-rule="nonzero"/></g><g clip-path="url(#775aeed7a0)"><path fill="#f1c40f" d="M 20.34375 13.820312 C 20.234375 13.820312 20.144531 13.734375 20.144531 13.625 C 20.144531 13.734375 20.054688 13.820312 19.945312 13.820312 C 20.054688 13.820312 20.144531 13.910156 20.144531 14.019531 C 20.144531 13.910156 20.234375 13.820312 20.34375 13.820312 Z M 20.34375 13.820312 " fill-opacity="1" fill-rule="nonzero"/></g><g clip-path="url(#073f3de51e)"><path fill="#f1c40f" d="M 16.804688 18.253906 C 16.695312 18.253906 16.609375 18.167969 16.609375 18.058594 C 16.609375 18.167969 16.519531 18.253906 16.410156 18.253906 C 16.519531 18.253906 16.609375 18.34375 16.609375 18.449219 C 16.609375 18.34375 16.695312 18.253906 16.804688 18.253906 Z M 16.804688 18.253906 " fill-opacity="1" fill-rule="nonzero"/></g></svg>