<svg xmlns="http://www.w3.org/2000/svg" xmlns:xlink="http://www.w3.org/1999/xlink" width="250" zoomAndPan="magnify" viewBox="0 0 187.5 187.499992" height="250" preserveAspectRatio="xMidYMid meet" version="1.0"><defs><clipPath id="3b02789d9e"><path d="M 101 86.125 L 105 86.125 L 105 91 L 101 91 Z M 101 86.125 " clip-rule="nonzero"/></clipPath><clipPath id="4b79e8a7f6"><path d="M 83.125 95 L 86 95 L 86 98 L 83.125 98 Z M 83.125 95 " clip-rule="nonzero"/></clipPath><clipPath id="666aec48d9"><path d="M 102 117 L 106 117 L 106 119.785156 L 102 119.785156 Z M 102 117 " clip-rule="nonzero"/></clipPath></defs><path fill="#333333" d="M 115.105469 87.769531 C 117.035156 86.644531 119.835938 87.191406 120.882812 89.609375 C 121.316406 90.605469 121.246094 91.84375 120.9375 92.671875 L 120.941406 92.671875 L 121.191406 93.253906 L 123.328125 92.347656 C 124.976562 91.648438 127.03125 92.09375 127.730469 93.703125 L 130.273438 99.558594 C 130.96875 101.167969 129.878906 102.949219 128.230469 103.648438 L 126.097656 104.554688 L 127.523438 107.847656 C 127.84375 107.710938 128.246094 107.617188 128.441406 108.0625 L 129.507812 110.523438 C 129.632812 110.804688 129.5 111.132812 129.214844 111.253906 L 115.988281 116.867188 C 115.703125 116.988281 115.371094 116.855469 115.25 116.574219 L 114.183594 114.117188 C 113.988281 113.667969 114.335938 113.445312 114.65625 113.308594 L 108.300781 98.652344 C 107.976562 98.605469 107.535156 98.367188 106.972656 97.785156 C 105.058594 95.804688 105.667969 92.519531 108.289062 91.382812 C 108.5625 88.332031 112.070312 86.121094 115.105469 87.769531 Z M 123.644531 98.90625 L 124.984375 101.992188 L 127.117188 101.085938 C 127.757812 100.8125 127.628906 100.542969 127.363281 99.933594 L 126.410156 97.730469 L 125.453125 95.53125 C 125.191406 94.921875 125.082031 94.640625 124.441406 94.914062 L 122.304688 95.820312 Z M 123.644531 98.90625 " fill-opacity="1" fill-rule="nonzero"/><path fill="#ffffff" d="M 128.253906 110.449219 L 127.628906 109.015625 L 115.4375 114.1875 L 116.0625 115.625 Z M 128.253906 110.449219 " fill-opacity="1" fill-rule="nonzero"/><path fill="#cccccc" d="M 128.375 110.398438 L 127.753906 108.960938 L 125.148438 110.066406 C 125.578125 110.617188 124.703125 111.015625 124.308594 111.183594 L 115.84375 114.777344 L 116.1875 115.570312 Z M 128.375 110.398438 " fill-opacity="1" fill-rule="nonzero"/><path fill="#f1c40f" d="M 126.488281 108.285156 L 120.125 93.613281 L 115.296875 95.609375 C 115.777344 96.785156 116.40625 97.738281 115.566406 98.582031 C 114.902344 99.25 113.648438 99.261719 113.167969 98.214844 L 112.503906 96.773438 L 112.277344 96.871094 L 113.871094 100.570312 C 114.636719 102.335938 111.929688 103.515625 111.171875 101.773438 L 109.574219 98.101562 L 109.328125 98.207031 L 115.691406 112.871094 Z M 126.488281 108.285156 " fill-opacity="1" fill-rule="nonzero"/><path fill="#ffffff" d="M 123.769531 93.371094 L 121.636719 94.277344 L 121.863281 94.796875 L 123.996094 93.890625 C 124.582031 93.640625 125.8125 93.53125 126.171875 94.363281 L 128.714844 100.222656 C 129.074219 101.054688 128.148438 101.859375 127.5625 102.105469 L 125.425781 103.015625 L 125.652344 103.53125 L 127.785156 102.625 C 128.863281 102.167969 129.679688 101.019531 129.238281 100 L 126.699219 94.140625 C 126.253906 93.121094 124.847656 92.914062 123.769531 93.371094 Z M 123.769531 93.371094 " fill-opacity="1" fill-rule="nonzero"/><path fill="#ffffff" d="M 114.402344 90.371094 C 114.195312 91.070312 113.117188 90.757812 113.324219 90.058594 C 113.5 89.464844 113.789062 88.960938 114.152344 88.550781 C 111.425781 87.5 108.4375 90.25 109.699219 93.152344 C 109.992188 93.828125 108.957031 94.265625 108.664062 93.59375 C 108.519531 93.257812 108.417969 92.921875 108.351562 92.59375 C 106.566406 93.667969 106.515625 96.3125 108.300781 97.441406 C 108.335938 97.417969 108.375 97.398438 108.417969 97.382812 C 109.214844 97.066406 110.078125 96.460938 110.382812 97.15625 L 112.203125 101.335938 C 112.371094 101.726562 113.019531 101.421875 112.839844 101.007812 L 111.023438 96.789062 C 110.722656 96.09375 111.757812 95.882812 112.574219 95.546875 C 112.855469 95.429688 113.175781 95.554688 113.300781 95.828125 L 114.191406 97.753906 C 114.367188 98.140625 115 97.847656 114.828125 97.421875 L 114.050781 95.519531 C 113.9375 95.234375 114.074219 94.910156 114.359375 94.796875 L 119.703125 92.585938 C 119.957031 92.035156 120.375 91.257812 119.851562 90.046875 C 118.777344 87.574219 115.160156 87.816406 114.402344 90.371094 Z M 114.402344 90.371094 " fill-opacity="1" fill-rule="nonzero"/><path fill="#333333" d="M 116.359375 89.867188 C 116.007812 90.160156 115.226562 89.535156 116.453125 89.015625 C 118.546875 88.128906 120.03125 90.769531 119.144531 90.949219 C 118.523438 91.078125 118.949219 90.046875 117.847656 89.632812 C 117.335938 89.4375 116.777344 89.519531 116.359375 89.867188 Z M 116.359375 89.867188 " fill-opacity="1" fill-rule="nonzero"/><path fill="#333333" d="M 110.722656 91.632812 C 110.796875 92.074219 110.113281 92.1875 110.042969 91.742188 C 109.710938 89.757812 112.121094 88.597656 112.285156 89.402344 C 112.40625 90.015625 111.472656 89.578125 110.902344 90.605469 C 110.734375 90.910156 110.664062 91.269531 110.722656 91.632812 Z M 110.722656 91.632812 " fill-opacity="1" fill-rule="nonzero"/><path fill="#333333" d="M 120.871094 110.074219 C 120.191406 110.359375 119.746094 109.339844 120.425781 109.050781 L 124.28125 107.414062 L 123.445312 105.484375 C 123.152344 104.8125 124.1875 104.371094 124.476562 105.046875 L 125.535156 107.484375 C 125.660156 107.769531 125.527344 108.097656 125.242188 108.21875 Z M 120.871094 110.074219 " fill-opacity="1" fill-rule="nonzero"/><path fill="#ffffff" d="M 117.003906 95.488281 L 119.816406 94.296875 L 124.476562 105.046875 C 124.1875 104.371094 123.152344 104.8125 123.445312 105.484375 L 124.28125 107.414062 L 122.503906 108.167969 Z M 117.003906 95.488281 " fill-opacity="0.62" fill-rule="evenodd"/><path fill="#ffffff" d="M 115.707031 109.328125 C 116.023438 109.191406 116.386719 109.335938 116.523438 109.648438 C 116.660156 109.960938 116.511719 110.324219 116.195312 110.457031 C 115.882812 110.59375 115.515625 110.445312 115.378906 110.136719 C 115.246094 109.824219 115.390625 109.460938 115.707031 109.328125 Z M 115.707031 109.328125 " fill-opacity="0.62" fill-rule="evenodd"/><path fill="#ffffff" d="M 117.875 108.28125 C 118.046875 108.210938 118.246094 108.289062 118.320312 108.457031 C 118.394531 108.628906 118.3125 108.824219 118.140625 108.898438 C 117.972656 108.96875 117.773438 108.890625 117.699219 108.722656 C 117.625 108.550781 117.703125 108.355469 117.875 108.28125 Z M 117.875 108.28125 " fill-opacity="0.62" fill-rule="evenodd"/><path fill="#ffffff" d="M 118.074219 109.882812 C 118.25 109.808594 118.453125 109.890625 118.53125 110.0625 C 118.605469 110.238281 118.523438 110.4375 118.347656 110.515625 C 118.171875 110.589844 117.96875 110.507812 117.894531 110.332031 C 117.816406 110.160156 117.898438 109.957031 118.074219 109.882812 Z M 118.074219 109.882812 " fill-opacity="0.62" fill-rule="evenodd"/><path fill="#ffffff" d="M 117.121094 109.15625 C 117.234375 109.105469 117.367188 109.160156 117.414062 109.273438 C 117.460938 109.382812 117.410156 109.515625 117.296875 109.5625 C 117.183594 109.609375 117.050781 109.558594 117.003906 109.445312 C 116.953125 109.332031 117.007812 109.203125 117.121094 109.15625 Z M 117.121094 109.15625 " fill-opacity="0.62" fill-rule="evenodd"/><path fill="#ffffff" d="M 116.816406 110.71875 C 117.011719 110.636719 117.234375 110.722656 117.320312 110.917969 C 117.402344 111.109375 117.3125 111.335938 117.117188 111.417969 C 116.921875 111.5 116.695312 111.410156 116.613281 111.21875 C 116.53125 111.023438 116.621094 110.800781 116.816406 110.71875 Z M 116.816406 110.71875 " fill-opacity="0.62" fill-rule="evenodd"/><path fill="#333333" d="M 97.246094 93.890625 C 95.722656 93.003906 93.515625 93.4375 92.6875 95.34375 C 92.347656 96.128906 92.402344 97.105469 92.648438 97.753906 L 92.648438 97.757812 L 92.644531 97.757812 L 92.445312 98.214844 L 90.761719 97.503906 C 89.464844 96.953125 87.839844 97.300781 87.289062 98.570312 L 85.289062 103.1875 C 84.738281 104.457031 85.597656 105.859375 86.898438 106.410156 L 88.582031 107.125 L 87.453125 109.722656 C 87.203125 109.617188 86.882812 109.539062 86.730469 109.890625 L 85.890625 111.832031 C 85.792969 112.054688 85.898438 112.3125 86.121094 112.40625 L 96.546875 116.832031 C 96.773438 116.929688 97.035156 116.824219 97.132812 116.601562 L 97.972656 114.664062 C 98.125 114.3125 97.851562 114.136719 97.597656 114.027344 L 102.613281 102.472656 C 102.863281 102.4375 103.210938 102.246094 103.65625 101.789062 C 105.164062 100.226562 104.6875 97.636719 102.617188 96.742188 C 102.40625 94.335938 99.636719 92.59375 97.246094 93.890625 Z M 90.511719 102.671875 L 89.457031 105.105469 L 87.773438 104.390625 C 87.269531 104.175781 87.375 103.960938 87.582031 103.484375 L 88.332031 101.746094 L 89.085938 100.011719 C 89.292969 99.53125 89.378906 99.308594 89.886719 99.523438 L 91.566406 100.238281 Z M 90.511719 102.671875 " fill-opacity="1" fill-rule="nonzero"/><path fill="#ffffff" d="M 86.878906 111.773438 L 87.371094 110.640625 L 96.980469 114.722656 L 96.492188 115.855469 Z M 86.878906 111.773438 " fill-opacity="1" fill-rule="nonzero"/><path fill="#cccccc" d="M 86.78125 111.730469 L 87.273438 110.601562 L 89.328125 111.472656 C 88.988281 111.90625 89.679688 112.222656 89.988281 112.351562 L 96.664062 115.1875 L 96.394531 115.8125 Z M 86.78125 111.730469 " fill-opacity="1" fill-rule="nonzero"/><path fill="#f1c40f" d="M 88.269531 110.066406 L 93.289062 98.5 L 97.09375 100.074219 C 96.714844 101 96.222656 101.75 96.882812 102.417969 C 97.40625 102.945312 98.390625 102.953125 98.773438 102.125 L 99.292969 100.992188 L 99.476562 101.066406 L 98.21875 103.984375 C 97.617188 105.378906 99.75 106.308594 100.347656 104.933594 L 101.605469 102.039062 L 101.800781 102.121094 L 96.785156 113.683594 Z M 88.269531 110.066406 " fill-opacity="1" fill-rule="nonzero"/><path fill="#ffffff" d="M 90.414062 98.308594 L 92.09375 99.023438 L 91.917969 99.433594 L 90.234375 98.71875 C 89.773438 98.523438 88.804688 98.433594 88.519531 99.089844 L 86.515625 103.710938 C 86.230469 104.367188 86.960938 105 87.425781 105.195312 L 89.109375 105.910156 L 88.929688 106.320312 L 87.246094 105.605469 C 86.398438 105.246094 85.753906 104.339844 86.101562 103.535156 L 88.105469 98.914062 C 88.457031 98.109375 89.5625 97.949219 90.414062 98.308594 Z M 90.414062 98.308594 " fill-opacity="1" fill-rule="nonzero"/><path fill="#ffffff" d="M 97.800781 95.941406 C 97.964844 96.492188 98.8125 96.246094 98.648438 95.695312 C 98.511719 95.226562 98.285156 94.832031 98 94.507812 C 100.144531 93.679688 102.5 95.847656 101.507812 98.136719 C 101.277344 98.667969 102.09375 99.015625 102.324219 98.484375 C 102.4375 98.21875 102.519531 97.957031 102.566406 97.695312 C 103.976562 98.542969 104.015625 100.625 102.609375 101.519531 C 102.582031 101.5 102.550781 101.484375 102.519531 101.472656 C 101.890625 101.222656 101.210938 100.742188 100.96875 101.292969 L 99.535156 104.589844 C 99.402344 104.894531 98.890625 104.65625 99.03125 104.328125 L 100.464844 101.003906 C 100.703125 100.457031 99.882812 100.289062 99.242188 100.023438 C 99.019531 99.929688 98.765625 100.03125 98.667969 100.246094 L 97.96875 101.765625 C 97.828125 102.070312 97.328125 101.835938 97.464844 101.503906 L 98.074219 100.003906 C 98.167969 99.777344 98.058594 99.523438 97.832031 99.433594 L 93.617188 97.691406 C 93.417969 97.253906 93.089844 96.640625 93.503906 95.6875 C 94.351562 93.738281 97.203125 93.929688 97.800781 95.941406 Z M 97.800781 95.941406 " fill-opacity="1" fill-rule="nonzero"/><path fill="#333333" d="M 96.257812 95.546875 C 96.53125 95.777344 97.148438 95.285156 96.183594 94.875 C 94.53125 94.171875 93.363281 96.257812 94.058594 96.398438 C 94.550781 96.5 94.214844 95.6875 95.085938 95.359375 C 95.484375 95.207031 95.925781 95.273438 96.257812 95.546875 Z M 96.257812 95.546875 " fill-opacity="1" fill-rule="nonzero"/><path fill="#333333" d="M 100.699219 96.9375 C 100.640625 97.285156 101.179688 97.375 101.238281 97.023438 C 101.496094 95.460938 99.597656 94.542969 99.472656 95.179688 C 99.375 95.660156 100.109375 95.320312 100.558594 96.128906 C 100.691406 96.367188 100.746094 96.652344 100.699219 96.9375 Z M 100.699219 96.9375 " fill-opacity="1" fill-rule="nonzero"/><path fill="#333333" d="M 92.699219 111.476562 C 93.234375 111.703125 93.585938 110.898438 93.050781 110.667969 L 90.011719 109.378906 L 90.671875 107.859375 C 90.902344 107.328125 90.085938 106.980469 89.855469 107.511719 L 89.019531 109.4375 C 88.925781 109.660156 89.027344 109.917969 89.253906 110.011719 Z M 92.699219 111.476562 " fill-opacity="1" fill-rule="nonzero"/><path fill="#ffffff" d="M 95.746094 99.980469 L 93.53125 99.039062 L 89.855469 107.511719 C 90.085938 106.980469 90.902344 107.328125 90.671875 107.859375 L 90.011719 109.378906 L 91.410156 109.972656 Z M 95.746094 99.980469 " fill-opacity="0.62" fill-rule="evenodd"/><path fill="#ffffff" d="M 96.769531 110.886719 C 96.523438 110.78125 96.234375 110.898438 96.128906 111.140625 C 96.019531 111.390625 96.136719 111.675781 96.382812 111.78125 C 96.632812 111.886719 96.921875 111.773438 97.027344 111.527344 C 97.136719 111.277344 97.019531 110.992188 96.769531 110.886719 Z M 96.769531 110.886719 " fill-opacity="0.62" fill-rule="evenodd"/><path fill="#ffffff" d="M 95.0625 110.066406 C 94.925781 110.007812 94.769531 110.070312 94.710938 110.203125 C 94.652344 110.335938 94.714844 110.492188 94.851562 110.550781 C 94.984375 110.609375 95.144531 110.546875 95.203125 110.410156 C 95.257812 110.277344 95.195312 110.121094 95.0625 110.066406 Z M 95.0625 110.066406 " fill-opacity="0.62" fill-rule="evenodd"/><path fill="#ffffff" d="M 94.902344 111.328125 C 94.765625 111.269531 94.605469 111.332031 94.542969 111.46875 C 94.484375 111.605469 94.550781 111.765625 94.6875 111.824219 C 94.828125 111.882812 94.988281 111.820312 95.046875 111.679688 C 95.105469 111.546875 95.042969 111.386719 94.902344 111.328125 Z M 94.902344 111.328125 " fill-opacity="0.62" fill-rule="evenodd"/><path fill="#ffffff" d="M 95.65625 110.753906 C 95.566406 110.714844 95.464844 110.757812 95.425781 110.84375 C 95.386719 110.933594 95.429688 111.035156 95.519531 111.074219 C 95.605469 111.113281 95.710938 111.070312 95.75 110.980469 C 95.789062 110.894531 95.746094 110.789062 95.65625 110.753906 Z M 95.65625 110.753906 " fill-opacity="0.62" fill-rule="evenodd"/><path fill="#ffffff" d="M 95.898438 111.984375 C 95.742188 111.921875 95.566406 111.992188 95.5 112.144531 C 95.433594 112.296875 95.503906 112.472656 95.65625 112.539062 C 95.8125 112.601562 95.988281 112.53125 96.054688 112.378906 C 96.121094 112.226562 96.050781 112.050781 95.898438 111.984375 Z M 95.898438 111.984375 " fill-opacity="0.62" fill-rule="evenodd"/><g clip-path="url(#3b02789d9e)"><path fill="#f1c40f" d="M 104.859375 88.578125 C 103.921875 88.578125 103.160156 87.828125 103.160156 86.898438 C 103.160156 87.828125 102.402344 88.578125 101.464844 88.578125 C 102.402344 88.578125 103.160156 89.332031 103.160156 90.257812 C 103.160156 89.332031 103.921875 88.578125 104.859375 88.578125 Z M 104.859375 88.578125 " fill-opacity="1" fill-rule="nonzero"/></g><path fill="#f1c40f" d="M 108.5625 108.183594 C 107.835938 108.183594 107.25 107.601562 107.25 106.886719 C 107.25 107.601562 106.660156 108.183594 105.9375 108.183594 C 106.660156 108.183594 107.25 108.761719 107.25 109.480469 C 107.25 108.761719 107.835938 108.183594 108.5625 108.183594 Z M 108.5625 108.183594 " fill-opacity="1" fill-rule="nonzero"/><g clip-path="url(#4b79e8a7f6)"><path fill="#f1c40f" d="M 85.542969 96.511719 C 84.882812 96.511719 84.347656 95.980469 84.347656 95.328125 C 84.347656 95.980469 83.8125 96.511719 83.152344 96.511719 C 83.8125 96.511719 84.347656 97.039062 84.347656 97.695312 C 84.347656 97.039062 84.882812 96.511719 85.542969 96.511719 Z M 85.542969 96.511719 " fill-opacity="1" fill-rule="nonzero"/></g><path fill="#f1c40f" d="M 128.648438 89.113281 C 127.921875 89.113281 127.335938 88.53125 127.335938 87.816406 C 127.335938 88.53125 126.75 89.113281 126.027344 89.113281 C 126.75 89.113281 127.335938 89.695312 127.335938 90.410156 C 127.335938 89.695312 127.921875 89.113281 128.648438 89.113281 Z M 128.648438 89.113281 " fill-opacity="1" fill-rule="nonzero"/><g clip-path="url(#666aec48d9)"><path fill="#f1c40f" d="M 105.28125 118.480469 C 104.558594 118.480469 103.972656 117.902344 103.972656 117.183594 C 103.972656 117.902344 103.386719 118.480469 102.660156 118.480469 C 103.386719 118.480469 103.972656 119.0625 103.972656 119.777344 C 103.972656 119.0625 104.558594 118.480469 105.28125 118.480469 Z M 105.28125 118.480469 " fill-opacity="1" fill-rule="nonzero"/></g></svg>