<svg xmlns="http://www.w3.org/2000/svg" xmlns:xlink="http://www.w3.org/1999/xlink" width="794" zoomAndPan="magnify" viewBox="0 0 595.5 842.249979" height="1123" preserveAspectRatio="xMidYMid meet" version="1.0"><defs><clipPath id="8284c181e5"><path d="M 208.175781 193 L 386.863281 193 L 386.863281 349.316406 L 208.175781 349.316406 Z M 208.175781 193 " clip-rule="nonzero"/></clipPath><clipPath id="29cf52a3b7"><path d="M 215.25 218.121094 C 200.78125 241.957031 210.976562 265.15625 223.78125 277.46875 L 298.671875 349.316406 L 371.980469 277.722656 C 383.890625 264.480469 388.457031 250.429688 385.921875 234.785156 C 382.417969 213.144531 364.585938 196.355469 342.554688 193.957031 C 329.046875 192.503906 315.992188 196.328125 305.808594 204.792969 C 303.066406 207.070312 300.613281 209.617188 298.476562 212.382812 C 295.945312 209.230469 292.972656 206.347656 289.613281 203.792969 C 277.898438 194.890625 262.988281 191.359375 248.664062 194.105469 C 235.097656 196.726562 222.921875 205.476562 215.25 218.121094 Z M 215.25 218.121094 " clip-rule="nonzero"/></clipPath></defs><g clip-path="url(#8284c181e5)"><g clip-path="url(#29cf52a3b7)"><path fill="#d01f1f" d="M 208.175781 193.195312 L 386.863281 193.195312 L 386.863281 349.316406 L 208.175781 349.316406 Z M 208.175781 193.195312 " fill-opacity="1" fill-rule="nonzero"/></g></g></svg>