<svg xmlns="http://www.w3.org/2000/svg" xmlns:xlink="http://www.w3.org/1999/xlink" width="500" zoomAndPan="magnify" viewBox="0 0 375 374.999991" height="500" preserveAspectRatio="xMidYMid meet" version="1.0"><defs><g/><clipPath id="da7f3a1d4c"><path d="M 95.023438 130.050781 L 111.523438 130.050781 L 111.523438 178.800781 L 95.023438 178.800781 Z M 95.023438 130.050781 " clip-rule="nonzero"/></clipPath><clipPath id="9db6a205b0"><path d="M 275 128.058594 L 283 128.058594 L 283 131 L 275 131 Z M 275 128.058594 " clip-rule="nonzero"/></clipPath><clipPath id="34a65686a8"><path d="M 271.863281 129 L 285.363281 129 L 285.363281 180.558594 L 271.863281 180.558594 Z M 271.863281 129 " clip-rule="nonzero"/></clipPath></defs><g fill="#ffffff" fill-opacity="1"><g transform="translate(38.4323, 178.02888)"><g><path d="M 2.09375 -35.296875 C 2.789062 -35.253906 3.703125 -35.21875 4.828125 -35.1875 C 5.960938 -35.15625 7.078125 -35.140625 8.171875 -35.140625 C 9.734375 -35.140625 11.226562 -35.15625 12.65625 -35.1875 C 14.082031 -35.21875 15.097656 -35.234375 15.703125 -35.234375 C 19.722656 -35.234375 22.726562 -34.316406 24.71875 -32.484375 C 26.71875 -30.660156 27.71875 -28.304688 27.71875 -25.421875 C 27.71875 -24.222656 27.515625 -22.96875 27.109375 -21.65625 C 26.710938 -20.34375 26.023438 -19.128906 25.046875 -18.015625 C 24.066406 -16.898438 22.726562 -15.992188 21.03125 -15.296875 C 19.332031 -14.597656 17.191406 -14.25 14.609375 -14.25 L 9.8125 -14.25 L 9.8125 -15.25 L 14.109375 -15.25 C 16.460938 -15.25 18.265625 -15.695312 19.515625 -16.59375 C 20.765625 -17.488281 21.613281 -18.664062 22.0625 -20.125 C 22.507812 -21.59375 22.734375 -23.175781 22.734375 -24.875 C 22.734375 -28.03125 22.109375 -30.390625 20.859375 -31.953125 C 19.609375 -33.515625 17.472656 -34.296875 14.453125 -34.296875 C 12.921875 -34.296875 11.921875 -34.007812 11.453125 -33.4375 C 10.992188 -32.875 10.765625 -31.726562 10.765625 -30 L 10.765625 -5.28125 C 10.765625 -4.082031 10.890625 -3.179688 11.140625 -2.578125 C 11.390625 -1.984375 11.878906 -1.585938 12.609375 -1.390625 C 13.335938 -1.191406 14.398438 -1.0625 15.796875 -1 L 15.796875 0 C 14.929688 -0.0625 13.832031 -0.101562 12.5 -0.125 C 11.175781 -0.144531 9.832031 -0.15625 8.46875 -0.15625 C 7.175781 -0.15625 5.960938 -0.144531 4.828125 -0.125 C 3.703125 -0.101562 2.789062 -0.0625 2.09375 0 L 2.09375 -1 C 3.21875 -1.0625 4.070312 -1.191406 4.65625 -1.390625 C 5.238281 -1.585938 5.628906 -1.984375 5.828125 -2.578125 C 6.023438 -3.179688 6.125 -4.082031 6.125 -5.28125 L 6.125 -30 C 6.125 -31.226562 6.023438 -32.132812 5.828125 -32.71875 C 5.628906 -33.300781 5.238281 -33.703125 4.65625 -33.921875 C 4.070312 -34.140625 3.21875 -34.265625 2.09375 -34.296875 Z M 2.09375 -35.296875 "/></g></g></g><g fill="#ffffff" fill-opacity="1"><g transform="translate(67.588651, 178.02888)"><g><path d="M 8.515625 0.34375 C 7.160156 0.34375 5.984375 0.0859375 4.984375 -0.421875 C 3.984375 -0.941406 3.222656 -1.664062 2.703125 -2.59375 C 2.191406 -3.519531 1.9375 -4.597656 1.9375 -5.828125 C 1.9375 -7.296875 2.273438 -8.492188 2.953125 -9.421875 C 3.640625 -10.347656 4.515625 -11.09375 5.578125 -11.65625 C 6.640625 -12.226562 7.757812 -12.703125 8.9375 -13.078125 C 10.125 -13.460938 11.25 -13.828125 12.3125 -14.171875 C 13.375 -14.523438 14.242188 -14.929688 14.921875 -15.390625 C 15.609375 -15.859375 15.953125 -16.476562 15.953125 -17.25 L 15.953125 -20.34375 C 15.953125 -21.738281 15.742188 -22.800781 15.328125 -23.53125 C 14.910156 -24.257812 14.351562 -24.75 13.65625 -25 C 12.957031 -25.25 12.175781 -25.375 11.3125 -25.375 C 10.476562 -25.375 9.585938 -25.253906 8.640625 -25.015625 C 7.703125 -24.785156 6.945312 -24.304688 6.375 -23.578125 C 7.007812 -23.441406 7.554688 -23.109375 8.015625 -22.578125 C 8.484375 -22.046875 8.71875 -21.363281 8.71875 -20.53125 C 8.71875 -19.707031 8.453125 -19.050781 7.921875 -18.5625 C 7.390625 -18.082031 6.707031 -17.84375 5.875 -17.84375 C 4.914062 -17.84375 4.210938 -18.148438 3.765625 -18.765625 C 3.316406 -19.378906 3.09375 -20.066406 3.09375 -20.828125 C 3.09375 -21.691406 3.304688 -22.390625 3.734375 -22.921875 C 4.171875 -23.453125 4.722656 -23.953125 5.390625 -24.421875 C 6.148438 -24.953125 7.132812 -25.410156 8.34375 -25.796875 C 9.5625 -26.179688 10.9375 -26.375 12.46875 -26.375 C 13.820312 -26.375 14.976562 -26.210938 15.9375 -25.890625 C 16.90625 -25.578125 17.707031 -25.117188 18.34375 -24.515625 C 19.207031 -23.722656 19.769531 -22.753906 20.03125 -21.609375 C 20.300781 -20.460938 20.4375 -19.09375 20.4375 -17.5 L 20.4375 -3.640625 C 20.4375 -2.804688 20.5625 -2.207031 20.8125 -1.84375 C 21.0625 -1.476562 21.453125 -1.296875 21.984375 -1.296875 C 22.347656 -1.296875 22.695312 -1.378906 23.03125 -1.546875 C 23.363281 -1.710938 23.757812 -1.976562 24.21875 -2.34375 L 24.765625 -1.5 C 24.066406 -0.96875 23.398438 -0.523438 22.765625 -0.171875 C 22.140625 0.171875 21.296875 0.34375 20.234375 0.34375 C 19.273438 0.34375 18.476562 0.179688 17.84375 -0.140625 C 17.207031 -0.472656 16.734375 -0.960938 16.421875 -1.609375 C 16.109375 -2.265625 15.953125 -3.09375 15.953125 -4.09375 C 15.054688 -2.59375 13.984375 -1.476562 12.734375 -0.75 C 11.484375 -0.0195312 10.078125 0.34375 8.515625 0.34375 Z M 10.3125 -1.640625 C 11.414062 -1.640625 12.4375 -1.953125 13.375 -2.578125 C 14.320312 -3.210938 15.179688 -4.164062 15.953125 -5.4375 L 15.953125 -15.203125 C 15.554688 -14.640625 14.972656 -14.164062 14.203125 -13.78125 C 13.441406 -13.394531 12.613281 -13.007812 11.71875 -12.625 C 10.820312 -12.25 9.960938 -11.800781 9.140625 -11.28125 C 8.328125 -10.769531 7.65625 -10.097656 7.125 -9.265625 C 6.59375 -8.441406 6.328125 -7.363281 6.328125 -6.03125 C 6.328125 -4.695312 6.679688 -3.628906 7.390625 -2.828125 C 8.109375 -2.035156 9.082031 -1.640625 10.3125 -1.640625 Z M 10.3125 -1.640625 "/></g></g></g><g fill="#ffffff" fill-opacity="1"><g transform="translate(92.420578, 178.02888)"><g/></g></g><g fill="#ffffff" fill-opacity="1"><g transform="translate(104.83071, 178.02888)"><g/></g></g><g fill="#ffffff" fill-opacity="1"><g transform="translate(117.240888, 178.02888)"><g><path d="M 16.953125 -26.375 C 17.847656 -26.375 18.632812 -26.1875 19.3125 -25.8125 C 20 -25.445312 20.53125 -24.972656 20.90625 -24.390625 C 21.289062 -23.816406 21.484375 -23.164062 21.484375 -22.4375 C 21.484375 -21.601562 21.222656 -20.867188 20.703125 -20.234375 C 20.191406 -19.609375 19.503906 -19.296875 18.640625 -19.296875 C 17.941406 -19.296875 17.328125 -19.519531 16.796875 -19.96875 C 16.265625 -20.414062 16 -21.050781 16 -21.875 C 16 -22.507812 16.171875 -23.050781 16.515625 -23.5 C 16.867188 -23.945312 17.257812 -24.304688 17.6875 -24.578125 C 17.457031 -24.910156 17.109375 -25.078125 16.640625 -25.078125 C 15.617188 -25.078125 14.675781 -24.769531 13.8125 -24.15625 C 12.945312 -23.539062 12.210938 -22.75 11.609375 -21.78125 C 11.015625 -20.820312 10.550781 -19.800781 10.21875 -18.71875 C 9.882812 -17.632812 9.71875 -16.628906 9.71875 -15.703125 L 9.71875 -5.140625 C 9.71875 -3.503906 10.191406 -2.410156 11.140625 -1.859375 C 12.085938 -1.316406 13.375 -1.046875 15 -1.046875 L 15 0 C 14.238281 -0.03125 13.160156 -0.0703125 11.765625 -0.125 C 10.367188 -0.175781 8.890625 -0.203125 7.328125 -0.203125 C 6.191406 -0.203125 5.066406 -0.175781 3.953125 -0.125 C 2.847656 -0.0703125 2.015625 -0.03125 1.453125 0 L 1.453125 -1.046875 C 2.804688 -1.046875 3.773438 -1.296875 4.359375 -1.796875 C 4.941406 -2.296875 5.234375 -3.242188 5.234375 -4.640625 L 5.234375 -20.234375 C 5.234375 -21.734375 4.96875 -22.835938 4.4375 -23.546875 C 3.90625 -24.265625 2.910156 -24.625 1.453125 -24.625 L 1.453125 -25.671875 C 2.515625 -25.566406 3.539062 -25.515625 4.53125 -25.515625 C 5.5 -25.515625 6.421875 -25.570312 7.296875 -25.6875 C 8.179688 -25.8125 8.988281 -25.988281 9.71875 -26.21875 L 9.71875 -19.984375 C 10.082031 -20.953125 10.601562 -21.925781 11.28125 -22.90625 C 11.96875 -23.882812 12.789062 -24.707031 13.75 -25.375 C 14.71875 -26.039062 15.785156 -26.375 16.953125 -26.375 Z M 16.953125 -26.375 "/></g></g></g><g fill="#ffffff" fill-opacity="1"><g transform="translate(139.419652, 178.02888)"><g><path d="M 41.328125 -35.296875 L 41.328125 -34.296875 C 40.191406 -34.265625 39.332031 -34.140625 38.75 -33.921875 C 38.164062 -33.703125 37.773438 -33.300781 37.578125 -32.71875 C 37.378906 -32.132812 37.28125 -31.226562 37.28125 -30 L 37.28125 -5.28125 C 37.28125 -4.082031 37.378906 -3.179688 37.578125 -2.578125 C 37.773438 -1.984375 38.164062 -1.585938 38.75 -1.390625 C 39.332031 -1.191406 40.191406 -1.0625 41.328125 -1 L 41.328125 0 C 40.554688 -0.0625 39.597656 -0.101562 38.453125 -0.125 C 37.304688 -0.144531 36.148438 -0.15625 34.984375 -0.15625 C 33.691406 -0.15625 32.476562 -0.144531 31.34375 -0.125 C 30.21875 -0.101562 29.304688 -0.0625 28.609375 0 L 28.609375 -1 C 29.742188 -1.0625 30.597656 -1.191406 31.171875 -1.390625 C 31.753906 -1.585938 32.144531 -1.984375 32.34375 -2.578125 C 32.539062 -3.179688 32.640625 -4.082031 32.640625 -5.28125 L 32.640625 -32.703125 L 32.84375 -32.546875 L 20.640625 0.25 L 19.84375 0.25 L 7.28125 -32.09375 L 7.28125 -5.78125 C 7.28125 -4.582031 7.382812 -3.640625 7.59375 -2.953125 C 7.8125 -2.273438 8.242188 -1.796875 8.890625 -1.515625 C 9.546875 -1.234375 10.519531 -1.0625 11.8125 -1 L 11.8125 0 C 11.21875 -0.0625 10.4375 -0.101562 9.46875 -0.125 C 8.507812 -0.144531 7.597656 -0.15625 6.734375 -0.15625 C 5.898438 -0.15625 5.054688 -0.144531 4.203125 -0.125 C 3.359375 -0.101562 2.65625 -0.0625 2.09375 0 L 2.09375 -1 C 3.21875 -1.0625 4.070312 -1.234375 4.65625 -1.515625 C 5.238281 -1.796875 5.628906 -2.273438 5.828125 -2.953125 C 6.023438 -3.640625 6.125 -4.582031 6.125 -5.78125 L 6.125 -30 C 6.125 -31.226562 6.023438 -32.132812 5.828125 -32.71875 C 5.628906 -33.300781 5.238281 -33.703125 4.65625 -33.921875 C 4.070312 -34.140625 3.21875 -34.265625 2.09375 -34.296875 L 2.09375 -35.296875 C 2.65625 -35.253906 3.359375 -35.21875 4.203125 -35.1875 C 5.054688 -35.15625 5.898438 -35.140625 6.734375 -35.140625 C 7.460938 -35.140625 8.21875 -35.15625 9 -35.1875 C 9.78125 -35.21875 10.4375 -35.253906 10.96875 -35.296875 L 22.28125 -5.484375 L 21.4375 -5.078125 L 32.640625 -35.140625 C 33.046875 -35.140625 33.4375 -35.140625 33.8125 -35.140625 C 34.195312 -35.140625 34.585938 -35.140625 34.984375 -35.140625 C 36.148438 -35.140625 37.304688 -35.15625 38.453125 -35.1875 C 39.597656 -35.21875 40.554688 -35.253906 41.328125 -35.296875 Z M 41.328125 -35.296875 "/></g></g></g><g fill="#ffffff" fill-opacity="1"><g transform="translate(182.830213, 178.02888)"><g><path d="M 24.625 -25.671875 L 24.625 -24.671875 C 23.988281 -24.609375 23.40625 -24.328125 22.875 -23.828125 C 22.34375 -23.328125 21.847656 -22.445312 21.390625 -21.1875 L 13.203125 0.25 L 12.359375 0.25 L 3.1875 -21.828125 C 2.5625 -23.128906 1.941406 -23.921875 1.328125 -24.203125 C 0.710938 -24.484375 0.203125 -24.625 -0.203125 -24.625 L -0.203125 -25.671875 C 0.523438 -25.566406 1.289062 -25.488281 2.09375 -25.4375 C 2.894531 -25.394531 3.757812 -25.375 4.6875 -25.375 C 5.71875 -25.375 6.804688 -25.40625 7.953125 -25.46875 C 9.097656 -25.53125 10.171875 -25.597656 11.171875 -25.671875 L 11.171875 -24.625 C 10.335938 -24.625 9.59375 -24.566406 8.9375 -24.453125 C 8.289062 -24.335938 7.882812 -23.988281 7.71875 -23.40625 C 7.5625 -22.820312 7.765625 -21.832031 8.328125 -20.4375 L 14.453125 -5.234375 L 14.15625 -5.140625 L 19.84375 -19.984375 C 20.269531 -21.078125 20.441406 -21.945312 20.359375 -22.59375 C 20.273438 -23.25 19.929688 -23.742188 19.328125 -24.078125 C 18.734375 -24.410156 17.835938 -24.609375 16.640625 -24.671875 L 16.640625 -25.671875 C 17.242188 -25.640625 17.757812 -25.613281 18.1875 -25.59375 C 18.625 -25.570312 19.050781 -25.550781 19.46875 -25.53125 C 19.882812 -25.519531 20.335938 -25.515625 20.828125 -25.515625 C 21.597656 -25.515625 22.289062 -25.53125 22.90625 -25.5625 C 23.519531 -25.601562 24.09375 -25.640625 24.625 -25.671875 Z M 13.203125 0.25 L 11.515625 4.578125 C 11.179688 5.410156 10.835938 6.109375 10.484375 6.671875 C 10.140625 7.242188 9.769531 7.710938 9.375 8.078125 C 8.84375 8.578125 8.207031 8.914062 7.46875 9.09375 C 6.738281 9.28125 6.078125 9.375 5.484375 9.375 C 4.847656 9.375 4.269531 9.253906 3.75 9.015625 C 3.238281 8.785156 2.832031 8.445312 2.53125 8 C 2.238281 7.550781 2.09375 7.007812 2.09375 6.375 C 2.09375 5.582031 2.320312 4.941406 2.78125 4.453125 C 3.25 3.972656 3.898438 3.734375 4.734375 3.734375 C 5.429688 3.734375 6.03125 3.929688 6.53125 4.328125 C 7.03125 4.734375 7.28125 5.316406 7.28125 6.078125 C 7.28125 6.640625 7.144531 7.101562 6.875 7.46875 C 6.613281 7.84375 6.300781 8.128906 5.9375 8.328125 C 6 8.359375 6.054688 8.375 6.109375 8.375 C 6.160156 8.375 6.203125 8.375 6.234375 8.375 C 7.128906 8.375 7.925781 8.066406 8.625 7.453125 C 9.320312 6.835938 9.9375 5.847656 10.46875 4.484375 L 12.265625 -0.15625 Z M 13.203125 0.25 "/></g></g></g><g fill="#ffffff" fill-opacity="1"><g transform="translate(207.949524, 178.02888)"><g><path d="M 15.703125 -35.296875 C 21.648438 -35.296875 26.066406 -33.804688 28.953125 -30.828125 C 31.847656 -27.859375 33.296875 -23.597656 33.296875 -18.046875 C 33.296875 -14.421875 32.585938 -11.253906 31.171875 -8.546875 C 29.765625 -5.835938 27.710938 -3.734375 25.015625 -2.234375 C 22.328125 -0.742188 19.070312 0 15.25 0 C 14.75 0 14.082031 -0.015625 13.25 -0.046875 C 12.425781 -0.078125 11.570312 -0.101562 10.6875 -0.125 C 9.8125 -0.144531 9.007812 -0.15625 8.28125 -0.15625 C 7.113281 -0.15625 5.960938 -0.144531 4.828125 -0.125 C 3.703125 -0.101562 2.789062 -0.0625 2.09375 0 L 2.09375 -1 C 3.21875 -1.0625 4.070312 -1.191406 4.65625 -1.390625 C 5.238281 -1.585938 5.628906 -1.984375 5.828125 -2.578125 C 6.023438 -3.179688 6.125 -4.082031 6.125 -5.28125 L 6.125 -30 C 6.125 -31.226562 6.023438 -32.132812 5.828125 -32.71875 C 5.628906 -33.300781 5.238281 -33.703125 4.65625 -33.921875 C 4.070312 -34.140625 3.21875 -34.265625 2.09375 -34.296875 L 2.09375 -35.296875 C 2.789062 -35.253906 3.703125 -35.207031 4.828125 -35.15625 C 5.960938 -35.113281 7.078125 -35.109375 8.171875 -35.140625 C 9.335938 -35.171875 10.648438 -35.203125 12.109375 -35.234375 C 13.578125 -35.273438 14.773438 -35.296875 15.703125 -35.296875 Z M 14.453125 -34.390625 C 12.921875 -34.390625 11.921875 -34.109375 11.453125 -33.546875 C 10.992188 -32.984375 10.765625 -31.835938 10.765625 -30.109375 L 10.765625 -5.1875 C 10.765625 -3.457031 11.003906 -2.304688 11.484375 -1.734375 C 11.972656 -1.171875 12.976562 -0.890625 14.5 -0.890625 C 18.125 -0.890625 20.929688 -1.546875 22.921875 -2.859375 C 24.921875 -4.171875 26.316406 -6.085938 27.109375 -8.609375 C 27.910156 -11.140625 28.3125 -14.21875 28.3125 -17.84375 C 28.3125 -21.5625 27.867188 -24.640625 26.984375 -27.078125 C 26.109375 -29.523438 24.664062 -31.351562 22.65625 -32.5625 C 20.644531 -33.78125 17.910156 -34.390625 14.453125 -34.390625 Z M 14.453125 -34.390625 "/></g></g></g><g fill="#ffffff" fill-opacity="1"><g transform="translate(243.983774, 178.02888)"><g><path d="M 16.953125 -26.375 C 17.847656 -26.375 18.632812 -26.1875 19.3125 -25.8125 C 20 -25.445312 20.53125 -24.972656 20.90625 -24.390625 C 21.289062 -23.816406 21.484375 -23.164062 21.484375 -22.4375 C 21.484375 -21.601562 21.222656 -20.867188 20.703125 -20.234375 C 20.191406 -19.609375 19.503906 -19.296875 18.640625 -19.296875 C 17.941406 -19.296875 17.328125 -19.519531 16.796875 -19.96875 C 16.265625 -20.414062 16 -21.050781 16 -21.875 C 16 -22.507812 16.171875 -23.050781 16.515625 -23.5 C 16.867188 -23.945312 17.257812 -24.304688 17.6875 -24.578125 C 17.457031 -24.910156 17.109375 -25.078125 16.640625 -25.078125 C 15.617188 -25.078125 14.675781 -24.769531 13.8125 -24.15625 C 12.945312 -23.539062 12.210938 -22.75 11.609375 -21.78125 C 11.015625 -20.820312 10.550781 -19.800781 10.21875 -18.71875 C 9.882812 -17.632812 9.71875 -16.628906 9.71875 -15.703125 L 9.71875 -5.140625 C 9.71875 -3.503906 10.191406 -2.410156 11.140625 -1.859375 C 12.085938 -1.316406 13.375 -1.046875 15 -1.046875 L 15 0 C 14.238281 -0.03125 13.160156 -0.0703125 11.765625 -0.125 C 10.367188 -0.175781 8.890625 -0.203125 7.328125 -0.203125 C 6.191406 -0.203125 5.066406 -0.175781 3.953125 -0.125 C 2.847656 -0.0703125 2.015625 -0.03125 1.453125 0 L 1.453125 -1.046875 C 2.804688 -1.046875 3.773438 -1.296875 4.359375 -1.796875 C 4.941406 -2.296875 5.234375 -3.242188 5.234375 -4.640625 L 5.234375 -20.234375 C 5.234375 -21.734375 4.96875 -22.835938 4.4375 -23.546875 C 3.90625 -24.265625 2.910156 -24.625 1.453125 -24.625 L 1.453125 -25.671875 C 2.515625 -25.566406 3.539062 -25.515625 4.53125 -25.515625 C 5.5 -25.515625 6.421875 -25.570312 7.296875 -25.6875 C 8.179688 -25.8125 8.988281 -25.988281 9.71875 -26.21875 L 9.71875 -19.984375 C 10.082031 -20.953125 10.601562 -21.925781 11.28125 -22.90625 C 11.96875 -23.882812 12.789062 -24.707031 13.75 -25.375 C 14.71875 -26.039062 15.785156 -26.375 16.953125 -26.375 Z M 16.953125 -26.375 "/></g></g></g><g fill="#ffffff" fill-opacity="1"><g transform="translate(266.162754, 178.02888)"><g/></g></g><g fill="#ffffff" fill-opacity="1"><g transform="translate(278.572886, 178.02888)"><g/></g></g><g fill="#ffffff" fill-opacity="1"><g transform="translate(290.983065, 178.02888)"><g><path d="M 18.1875 -26.375 C 19.457031 -26.375 20.515625 -26.207031 21.359375 -25.875 C 22.203125 -25.539062 22.90625 -25.070312 23.46875 -24.46875 C 24.101562 -23.800781 24.550781 -22.96875 24.8125 -21.96875 C 25.082031 -20.976562 25.21875 -19.632812 25.21875 -17.9375 L 25.21875 -4.640625 C 25.21875 -3.242188 25.507812 -2.296875 26.09375 -1.796875 C 26.675781 -1.296875 27.648438 -1.046875 29.015625 -1.046875 L 29.015625 0 C 28.441406 -0.03125 27.570312 -0.0703125 26.40625 -0.125 C 25.25 -0.175781 24.125 -0.203125 23.03125 -0.203125 C 21.9375 -0.203125 20.863281 -0.175781 19.8125 -0.125 C 18.769531 -0.0703125 17.984375 -0.03125 17.453125 0 L 17.453125 -1.046875 C 18.640625 -1.046875 19.484375 -1.296875 19.984375 -1.796875 C 20.484375 -2.296875 20.734375 -3.242188 20.734375 -4.640625 L 20.734375 -19.046875 C 20.734375 -20.066406 20.648438 -21.007812 20.484375 -21.875 C 20.316406 -22.738281 19.941406 -23.4375 19.359375 -23.96875 C 18.773438 -24.5 17.890625 -24.765625 16.703125 -24.765625 C 15.304688 -24.765625 14.082031 -24.363281 13.03125 -23.5625 C 11.988281 -22.769531 11.175781 -21.6875 10.59375 -20.3125 C 10.007812 -18.9375 9.71875 -17.398438 9.71875 -15.703125 L 9.71875 -4.640625 C 9.71875 -3.242188 9.96875 -2.296875 10.46875 -1.796875 C 10.96875 -1.296875 11.816406 -1.046875 13.015625 -1.046875 L 13.015625 0 C 12.484375 -0.03125 11.691406 -0.0703125 10.640625 -0.125 C 9.597656 -0.175781 8.523438 -0.203125 7.421875 -0.203125 C 6.328125 -0.203125 5.195312 -0.175781 4.03125 -0.125 C 2.875 -0.0703125 2.015625 -0.03125 1.453125 0 L 1.453125 -1.046875 C 2.804688 -1.046875 3.773438 -1.296875 4.359375 -1.796875 C 4.941406 -2.296875 5.234375 -3.242188 5.234375 -4.640625 L 5.234375 -20.234375 C 5.234375 -21.734375 4.96875 -22.835938 4.4375 -23.546875 C 3.90625 -24.265625 2.910156 -24.625 1.453125 -24.625 L 1.453125 -25.671875 C 2.515625 -25.566406 3.539062 -25.515625 4.53125 -25.515625 C 5.5 -25.515625 6.421875 -25.570312 7.296875 -25.6875 C 8.179688 -25.8125 8.988281 -25.988281 9.71875 -26.21875 L 9.71875 -20.34375 C 10.582031 -22.59375 11.785156 -24.160156 13.328125 -25.046875 C 14.878906 -25.929688 16.5 -26.375 18.1875 -26.375 Z M 18.1875 -26.375 "/></g></g></g><g fill="#ffffff" fill-opacity="1"><g transform="translate(320.737495, 178.02888)"><g><path d="M 9.265625 -39.078125 L 9.265625 -4.640625 C 9.265625 -3.242188 9.515625 -2.296875 10.015625 -1.796875 C 10.515625 -1.296875 11.363281 -1.046875 12.5625 -1.046875 L 12.5625 0 C 12.03125 -0.03125 11.238281 -0.0703125 10.1875 -0.125 C 9.144531 -0.175781 8.09375 -0.203125 7.03125 -0.203125 C 5.894531 -0.203125 4.742188 -0.175781 3.578125 -0.125 C 2.421875 -0.0703125 1.5625 -0.03125 1 0 L 1 -1.046875 C 2.363281 -1.046875 3.332031 -1.296875 3.90625 -1.796875 C 4.488281 -2.296875 4.78125 -3.242188 4.78125 -4.640625 L 4.78125 -33.09375 C 4.78125 -34.59375 4.515625 -35.695312 3.984375 -36.40625 C 3.453125 -37.125 2.457031 -37.484375 1 -37.484375 L 1 -38.53125 C 2.0625 -38.425781 3.09375 -38.375 4.09375 -38.375 C 5.050781 -38.375 5.96875 -38.429688 6.84375 -38.546875 C 7.726562 -38.671875 8.535156 -38.847656 9.265625 -39.078125 Z M 25.125 -25.671875 L 25.125 -24.671875 C 24.289062 -24.609375 23.507812 -24.382812 22.78125 -24 C 22.050781 -23.613281 21.335938 -23.054688 20.640625 -22.328125 L 13.609375 -14.953125 L 14.3125 -16.34375 L 23.578125 -3.640625 C 24.140625 -2.878906 24.675781 -2.28125 25.1875 -1.84375 C 25.707031 -1.414062 26.332031 -1.148438 27.0625 -1.046875 L 27.0625 0 C 26.695312 -0.03125 26.125 -0.0703125 25.34375 -0.125 C 24.5625 -0.175781 23.789062 -0.203125 23.03125 -0.203125 C 22 -0.203125 20.953125 -0.175781 19.890625 -0.125 C 18.828125 -0.0703125 18.03125 -0.03125 17.5 0 L 17.5 -1.046875 C 18.15625 -1.046875 18.617188 -1.210938 18.890625 -1.546875 C 19.160156 -1.878906 19.109375 -2.273438 18.734375 -2.734375 L 13.015625 -11.109375 C 12.378906 -12.015625 11.800781 -12.597656 11.28125 -12.859375 C 10.769531 -13.128906 10.035156 -13.28125 9.078125 -13.3125 L 9.078125 -14.3125 C 10.140625 -14.4375 11 -14.65625 11.65625 -14.96875 C 12.320312 -15.289062 12.957031 -15.769531 13.5625 -16.40625 L 17.25 -20.234375 C 18.3125 -21.328125 18.84375 -22.195312 18.84375 -22.84375 C 18.84375 -23.5 18.5 -23.96875 17.8125 -24.25 C 17.132812 -24.53125 16.25 -24.671875 15.15625 -24.671875 L 15.15625 -25.671875 C 16.019531 -25.640625 16.988281 -25.597656 18.0625 -25.546875 C 19.144531 -25.492188 20.050781 -25.46875 20.78125 -25.46875 C 21.34375 -25.46875 21.890625 -25.472656 22.421875 -25.484375 C 22.960938 -25.503906 23.460938 -25.53125 23.921875 -25.5625 C 24.390625 -25.601562 24.789062 -25.640625 25.125 -25.671875 Z M 25.125 -25.671875 "/></g></g></g><g clip-path="url(#da7f3a1d4c)"><path fill="#ffffff" d="M 96.035156 130.050781 C 96.035156 130.050781 95.066406 138.117188 95.066406 144.246094 C 95.066406 149.691406 98.125 153.480469 103.394531 153.480469 C 108.53125 153.480469 111.722656 149.691406 111.722656 144.246094 C 111.722656 138.117188 110.753906 130.050781 110.753906 130.050781 Z M 96.453125 130.445312 L 110.339844 130.445312 C 110.339844 130.445312 111.253906 138.914062 111.253906 144.160156 C 111.253906 148.816406 107.734375 151.136719 103.394531 151.136719 C 99.058594 151.136719 95.535156 148.816406 95.535156 144.160156 C 95.535156 138.914062 96.453125 130.445312 96.453125 130.445312 Z M 101.574219 153.734375 C 101.886719 154.039062 102.164062 154.355469 102.351562 154.71875 C 102.355469 154.730469 102.355469 154.742188 102.363281 154.753906 C 102.484375 155.039062 102.5625 155.347656 102.601562 155.675781 L 102.601562 176.363281 C 101.988281 177.175781 101.195312 177.644531 100.3125 177.910156 C 98.632812 178.265625 96.492188 178.074219 95.304688 178.183594 L 95.300781 178.183594 L 95.265625 178.535156 L 111.511719 178.535156 L 111.476562 178.183594 L 111.472656 178.183594 C 110.28125 178.074219 108.144531 178.265625 106.464844 177.910156 C 105.582031 177.644531 104.789062 177.175781 104.175781 176.363281 L 104.175781 155.675781 C 104.214844 155.347656 104.292969 155.039062 104.414062 154.753906 C 104.417969 154.742188 104.421875 154.730469 104.425781 154.71875 C 104.613281 154.355469 104.890625 154.039062 105.203125 153.734375 C 104.601562 153.808594 103.996094 153.867188 103.390625 153.875 L 103.386719 153.875 C 102.78125 153.867188 102.175781 153.808594 101.574219 153.734375 Z M 101.574219 153.734375 " fill-opacity="1" fill-rule="evenodd"/></g><g clip-path="url(#9db6a205b0)"><path fill="#ffffff" d="M 279.246094 128.070312 C 278.917969 128.074219 278.589844 128.082031 278.265625 128.097656 C 278.023438 128.109375 277.78125 128.128906 277.542969 128.160156 C 277.300781 128.1875 277.0625 128.226562 276.824219 128.269531 C 276.652344 128.304688 276.46875 128.3125 276.289062 128.339844 C 276.199219 128.355469 276.113281 128.371094 276.027344 128.402344 C 275.945312 128.429688 275.867188 128.46875 275.789062 128.523438 C 275.738281 128.5625 275.695312 128.609375 275.660156 128.664062 C 275.625 128.71875 275.601562 128.777344 275.578125 128.835938 C 275.535156 128.960938 275.511719 129.097656 275.488281 129.21875 C 275.480469 129.296875 275.464844 129.371094 275.449219 129.445312 C 275.429688 129.519531 275.410156 129.59375 275.390625 129.667969 C 275.371094 129.742188 275.351562 129.816406 275.339844 129.890625 C 275.324219 129.964844 275.316406 130.042969 275.320312 130.121094 C 275.324219 130.15625 275.335938 130.183594 275.347656 130.207031 C 275.363281 130.230469 275.378906 130.25 275.398438 130.269531 C 275.417969 130.285156 275.4375 130.296875 275.460938 130.304688 C 275.484375 130.3125 275.511719 130.316406 275.539062 130.320312 C 275.589844 130.324219 275.648438 130.3125 275.699219 130.296875 C 275.753906 130.277344 275.804688 130.25 275.84375 130.21875 C 275.894531 130.261719 275.949219 130.296875 276.007812 130.320312 C 276.066406 130.339844 276.128906 130.351562 276.191406 130.355469 C 276.253906 130.359375 276.320312 130.351562 276.378906 130.335938 C 276.441406 130.320312 276.503906 130.292969 276.558594 130.261719 C 276.589844 130.242188 276.617188 130.234375 276.648438 130.230469 C 276.675781 130.226562 276.703125 130.230469 276.734375 130.234375 C 276.789062 130.246094 276.84375 130.273438 276.898438 130.296875 C 276.953125 130.324219 277.007812 130.351562 277.0625 130.363281 C 277.09375 130.367188 277.121094 130.367188 277.152344 130.363281 C 277.179688 130.359375 277.210938 130.347656 277.242188 130.332031 C 277.296875 130.3125 277.351562 130.292969 277.40625 130.277344 C 277.460938 130.261719 277.515625 130.25 277.570312 130.246094 C 277.625 130.242188 277.683594 130.242188 277.738281 130.25 C 277.792969 130.261719 277.847656 130.277344 277.898438 130.304688 C 277.929688 130.328125 277.960938 130.34375 277.996094 130.351562 C 278.027344 130.359375 278.058594 130.363281 278.09375 130.363281 C 278.160156 130.363281 278.226562 130.34375 278.292969 130.328125 C 278.359375 130.3125 278.425781 130.296875 278.488281 130.292969 C 278.519531 130.292969 278.554688 130.296875 278.585938 130.304688 C 278.613281 130.3125 278.648438 130.332031 278.675781 130.351562 C 278.742188 130.382812 278.808594 130.398438 278.875 130.40625 C 278.941406 130.410156 279.007812 130.402344 279.070312 130.386719 C 279.136719 130.375 279.199219 130.351562 279.257812 130.328125 C 279.320312 130.304688 279.382812 130.277344 279.441406 130.25 C 279.5 130.257812 279.558594 130.28125 279.617188 130.308594 C 279.675781 130.335938 279.738281 130.367188 279.796875 130.390625 C 279.855469 130.414062 279.914062 130.433594 279.972656 130.4375 C 280.003906 130.4375 280.03125 130.433594 280.058594 130.421875 C 280.089844 130.414062 280.117188 130.398438 280.148438 130.375 C 280.171875 130.347656 280.195312 130.324219 280.21875 130.304688 C 280.246094 130.289062 280.269531 130.277344 280.296875 130.269531 C 280.351562 130.253906 280.402344 130.253906 280.460938 130.265625 C 280.570312 130.285156 280.683594 130.339844 280.796875 130.363281 C 280.859375 130.34375 280.917969 130.328125 280.976562 130.320312 C 281.039062 130.3125 281.09375 130.304688 281.152344 130.308594 C 281.210938 130.308594 281.269531 130.316406 281.328125 130.328125 C 281.386719 130.339844 281.445312 130.355469 281.503906 130.378906 C 281.632812 130.335938 281.777344 130.3125 281.910156 130.273438 C 281.980469 130.253906 282.046875 130.234375 282.105469 130.203125 C 282.167969 130.171875 282.222656 130.132812 282.269531 130.085938 C 282.277344 130 282.277344 129.917969 282.265625 129.835938 C 282.253906 129.753906 282.234375 129.671875 282.207031 129.589844 C 282.160156 129.429688 282.09375 129.273438 282.039062 129.117188 C 281.984375 128.992188 281.957031 128.839844 281.90625 128.703125 C 281.882812 128.636719 281.855469 128.570312 281.8125 128.511719 C 281.792969 128.484375 281.769531 128.457031 281.742188 128.433594 C 281.714844 128.410156 281.683594 128.386719 281.652344 128.371094 C 281.539062 128.316406 281.425781 128.273438 281.3125 128.238281 C 281.195312 128.207031 281.074219 128.179688 280.953125 128.164062 C 280.832031 128.144531 280.710938 128.132812 280.589844 128.121094 C 280.46875 128.113281 280.347656 128.105469 280.226562 128.097656 C 279.898438 128.078125 279.574219 128.070312 279.246094 128.070312 Z M 279.246094 128.070312 " fill-opacity="1" fill-rule="evenodd"/><path fill="#ffffff" d="M 276.175781 129.835938 C 276.097656 130.011719 276.269531 129.976562 276.175781 129.835938 Z M 279.046875 129.785156 C 278.96875 129.960938 279.140625 129.925781 279.046875 129.785156 Z M 276.820312 129.6875 C 276.742188 129.863281 276.914062 129.828125 276.820312 129.6875 Z M 276.476562 129.546875 C 276.410156 129.742188 276.554688 129.738281 276.476562 129.546875 Z M 276.523438 129.292969 C 276.445312 129.464844 276.617188 129.429688 276.523438 129.292969 Z M 279.988281 129.25 C 279.925781 129.445312 280.066406 129.441406 279.988281 129.25 Z M 281.53125 129.148438 C 281.496094 129.269531 281.691406 129.539062 281.710938 129.386719 C 281.511719 129.289062 281.878906 129.292969 281.6875 129.238281 C 281.617188 129.253906 281.578125 129.183594 281.53125 129.148438 Z M 279.796875 128.78125 C 279.820312 128.792969 279.84375 128.808594 279.882812 128.847656 C 279.902344 128.996094 279.957031 129.226562 279.953125 128.9375 C 279.941406 128.886719 279.9375 128.828125 279.894531 128.789062 C 279.835938 128.710938 279.785156 128.691406 279.722656 128.683594 C 279.417969 128.703125 279.542969 129.085938 279.554688 129.285156 C 279.601562 129.523438 279.617188 129.769531 279.6875 130.003906 C 279.746094 129.808594 279.691406 129.488281 279.667969 129.304688 C 279.648438 129.113281 279.585938 128.9375 279.648438 128.820312 C 279.667969 128.78125 279.757812 128.753906 279.796875 128.78125 Z M 276.769531 128.78125 C 276.570312 128.773438 276.433594 129.199219 276.648438 129.226562 C 276.664062 129.304688 276.820312 129.421875 276.851562 129.375 C 276.898438 129.210938 276.972656 128.855469 276.769531 128.78125 Z M 277.34375 128.75 C 277.113281 128.855469 277.234375 129.191406 277.203125 129.402344 C 277.199219 129.515625 277.214844 129.949219 277.261719 129.617188 C 277.183594 129.332031 277.589844 129.355469 277.53125 129.085938 C 277.53125 128.960938 277.507812 128.753906 277.34375 128.75 Z M 278.039062 128.707031 C 277.863281 128.726562 278.097656 129.109375 277.878906 128.902344 C 277.785156 128.945312 277.847656 129.140625 277.964844 129.117188 C 278.066406 129.335938 277.988281 129.667969 278.011719 129.835938 C 278.023438 129.660156 278.140625 129.417969 278.246094 129.613281 C 278.300781 129.363281 278.292969 129.09375 278.246094 128.84375 C 278.214844 128.765625 278.121094 128.707031 278.039062 128.707031 Z M 278.902344 128.695312 C 278.554688 128.679688 278.636719 129.0625 278.660156 129.289062 C 278.726562 129.496094 278.574219 129.867188 278.785156 129.964844 C 278.886719 129.75 278.777344 129.472656 278.804688 129.234375 C 278.785156 129.128906 278.84375 128.777344 278.90625 129.054688 C 278.917969 129.160156 278.992188 129.34375 278.96875 129.117188 C 278.898438 128.988281 279.113281 128.695312 278.902344 128.695312 Z M 280.363281 128.691406 C 280.15625 128.816406 280.351562 129.132812 280.363281 129.332031 C 280.429688 129.5625 280.472656 129.808594 280.574219 130.027344 C 280.621094 129.796875 280.488281 129.550781 280.457031 129.320312 C 280.441406 129.21875 280.285156 128.753906 280.484375 128.941406 C 280.542969 129.261719 280.613281 129.582031 280.734375 129.886719 C 280.9375 130.054688 280.789062 129.53125 280.742188 129.410156 C 280.671875 129.164062 280.675781 128.828125 280.410156 128.695312 Z M 281.445312 128.679688 C 281.277344 128.78125 281.621094 129.292969 281.613281 128.941406 C 281.589844 128.847656 281.558594 128.703125 281.445312 128.679688 Z M 280.925781 128.679688 C 280.777344 128.886719 280.976562 129.214844 281.007812 129.460938 C 281.050781 129.585938 281.078125 129.792969 281.152344 129.859375 C 281.148438 129.667969 281.054688 129.476562 281.082031 129.285156 C 281.230469 129.332031 281.175781 129.753906 281.34375 129.746094 C 281.191406 129.425781 281.1875 129.050781 281.023438 128.738281 C 281.003906 128.703125 280.964844 128.679688 280.925781 128.679688 Z M 282.039062 129.117188 C 281.925781 128.863281 281.929688 128.515625 281.652344 128.371094 C 281.210938 128.148438 280.707031 128.128906 280.226562 128.097656 C 279.574219 128.054688 278.917969 128.070312 278.265625 128.097656 C 277.78125 128.117188 277.300781 128.183594 276.824219 128.273438 C 276.476562 128.339844 276.085938 128.304688 275.789062 128.523438 C 275.582031 128.679688 275.539062 128.972656 275.488281 129.21875 C 275.460938 129.523438 275.3125 129.808594 275.316406 130.121094 C 275.367188 130.386719 275.683594 130.347656 275.84375 130.21875 C 276.046875 130.398438 276.332031 130.394531 276.558594 130.261719 C 276.800781 130.125 276.988281 130.472656 277.242188 130.332031 C 277.453125 130.25 277.6875 130.191406 277.898438 130.304688 C 278.148438 130.484375 278.4375 130.167969 278.675781 130.351562 C 278.945312 130.476562 279.203125 130.359375 279.441406 130.25 C 279.675781 130.277344 279.917969 130.554688 280.148438 130.375 C 280.335938 130.144531 280.574219 130.316406 280.796875 130.363281 C 281.042969 130.285156 281.265625 130.289062 281.507812 130.378906 C 281.757812 130.296875 282.082031 130.28125 282.269531 130.085938 C 282.308594 129.75 282.144531 129.425781 282.039062 129.117188 Z M 276.566406 128.484375 C 277.046875 128.410156 277.53125 128.328125 278.019531 128.289062 C 278.890625 128.25 279.773438 128.242188 280.644531 128.332031 C 280.988281 128.394531 281.355469 128.433594 281.660156 128.617188 C 281.867188 128.945312 281.925781 129.339844 282.066406 129.699219 C 282.183594 129.90625 282.085938 130.128906 281.835938 130.121094 C 281.613281 130.246094 281.394531 130.234375 281.179688 130.121094 C 280.949219 130.097656 280.726562 130.351562 280.527344 130.121094 C 280.320312 129.925781 280.152344 130.324219 279.925781 130.265625 C 279.691406 130.121094 279.367188 130.015625 279.117188 130.191406 C 278.867188 130.328125 278.660156 130.023438 278.398438 130.132812 C 278.132812 130.289062 277.910156 130.070312 277.640625 130.082031 C 277.386719 130.015625 276.996094 130.394531 276.875 130.035156 C 276.847656 129.796875 276.699219 130.160156 276.542969 130.066406 C 276.367188 130.144531 276.113281 130.335938 275.941406 130.109375 C 275.984375 129.9375 275.941406 129.613281 276.117188 129.527344 C 276.179688 129.609375 276.160156 129.828125 276.222656 129.589844 C 276.277344 129.347656 276.328125 129.078125 276.226562 128.84375 C 275.984375 128.664062 276.007812 129.171875 275.945312 129.3125 C 275.882812 129.574219 275.875 129.859375 275.75 130.101562 C 275.585938 130.246094 275.390625 130.121094 275.488281 129.914062 C 275.527344 129.617188 275.660156 129.339844 275.703125 129.042969 C 275.742188 128.835938 275.855469 128.589844 276.097656 128.578125 C 276.253906 128.546875 276.410156 128.515625 276.566406 128.484375 Z M 276.566406 128.484375 " fill-opacity="1" fill-rule="nonzero"/></g><g clip-path="url(#34a65686a8)"><path fill="#ffffff" d="M 275.921875 129.953125 C 275.339844 130.152344 275.339844 132.121094 275.703125 132.414062 C 275.871094 132.546875 275.832031 132.625 275.78125 133.085938 C 275.558594 135.109375 275.265625 138.183594 275.125 140.992188 C 274.960938 144.296875 275.371094 146.59375 274.316406 148.523438 C 273.367188 149.730469 271.890625 150.773438 271.886719 152.484375 C 271.867188 160.8125 271.886719 169.136719 271.886719 177.464844 C 271.886719 178.179688 272.804688 179.28125 274.160156 179.796875 C 275.511719 180.308594 277.230469 180.519531 278.796875 180.519531 C 280.359375 180.519531 282.082031 180.304688 283.433594 179.792969 C 284.789062 179.28125 285.703125 178.175781 285.703125 177.460938 C 285.703125 169.136719 285.726562 160.808594 285.703125 152.484375 C 285.699219 150.773438 284.226562 149.730469 283.277344 148.523438 C 282.222656 146.597656 282.632812 144.296875 282.46875 140.996094 C 282.328125 138.1875 282.035156 135.109375 281.8125 133.089844 C 281.761719 132.628906 281.722656 132.550781 281.890625 132.414062 C 282.253906 132.125 282.25 130.15625 281.671875 129.957031 C 281.042969 129.742188 279.714844 129.765625 278.796875 129.765625 C 277.875 129.765625 276.550781 129.738281 275.921875 129.953125 Z M 275.921875 129.953125 " fill-opacity="1" fill-rule="nonzero"/></g><g fill="#ffffff" fill-opacity="1"><g transform="translate(140.053717, 200.931901)"><g><path d="M 9.421875 0.84375 L 6 -8.21875 L 2.59375 0.84375 L 0.15625 -10.40625 L 1.25 -10.40625 L 2.859375 -2.84375 L 6 -11.03125 L 9.125 -2.84375 L 10.75 -10.40625 L 11.84375 -10.40625 Z M 9.421875 0.84375 "/></g></g></g><g fill="#ffffff" fill-opacity="1"><g transform="translate(154.257186, 200.931901)"><g><path d="M 2.21875 0 L 1.140625 0 L 1.140625 -10.40625 L 2.21875 -10.40625 Z M 2.21875 0 "/></g></g></g><g fill="#ffffff" fill-opacity="1"><g transform="translate(159.844124, 200.931901)"><g><path d="M 2.21875 -7.671875 L 2.21875 0 L 1.140625 0 L 1.140625 -11.078125 L 7 -2.75 L 7 -10.40625 L 8.0625 -10.40625 L 8.0625 0.640625 Z M 2.21875 -7.671875 "/></g></g></g><g fill="#ffffff" fill-opacity="1"><g transform="translate(171.277446, 200.931901)"><g><path d="M 7.328125 0 L 1.140625 0 L 1.140625 -10.40625 L 7.328125 -10.40625 L 7.328125 -9.421875 L 2.21875 -9.421875 L 2.21875 -5.71875 L 7.1875 -5.71875 L 7.1875 -4.703125 L 2.21875 -4.703125 L 2.21875 -1 L 7.328125 -1 Z M 7.328125 0 "/></g></g></g><g fill="#ffffff" fill-opacity="1"><g transform="translate(181.976138, 200.931901)"><g><path d="M 4.03125 -5.28125 C 3.4375 -4.851562 3.023438 -4.523438 2.796875 -4.296875 C 2.296875 -3.796875 2.046875 -3.332031 2.046875 -2.90625 C 2.046875 -2.394531 2.238281 -1.9375 2.625 -1.53125 C 2.988281 -1.125 3.429688 -0.921875 3.953125 -0.921875 C 4.515625 -0.921875 5.132812 -1.242188 5.8125 -1.890625 C 5.988281 -2.046875 6.15625 -2.203125 6.3125 -2.359375 Z M 3.9375 -7 C 4.0625 -6.863281 4.175781 -6.726562 4.28125 -6.59375 C 4.4375 -6.707031 4.601562 -6.828125 4.78125 -6.953125 C 4.9375 -7.066406 5.085938 -7.191406 5.234375 -7.328125 C 5.566406 -7.660156 5.734375 -8.015625 5.734375 -8.390625 C 5.734375 -8.765625 5.601562 -9.0625 5.34375 -9.28125 C 5.09375 -9.488281 4.8125 -9.601562 4.5 -9.625 C 4.1875 -9.632812 3.898438 -9.539062 3.640625 -9.34375 C 3.390625 -9.132812 3.265625 -8.804688 3.265625 -8.359375 C 3.265625 -7.910156 3.488281 -7.457031 3.9375 -7 Z M 9.109375 -4.0625 C 8.953125 -3.84375 8.492188 -3.269531 7.734375 -2.34375 L 9.53125 0 L 8.109375 0.03125 L 6.984375 -1.453125 C 6.472656 -0.941406 6.0625 -0.585938 5.75 -0.390625 C 5.132812 -0.00390625 4.585938 0.1875 4.109375 0.1875 C 3.628906 0.1875 3.203125 0.109375 2.828125 -0.046875 C 2.453125 -0.191406 2.132812 -0.398438 1.875 -0.671875 C 1.289062 -1.242188 1 -1.960938 1 -2.828125 C 1 -3.828125 1.492188 -4.695312 2.484375 -5.4375 C 2.765625 -5.632812 3.0625 -5.847656 3.375 -6.078125 C 2.632812 -6.921875 2.265625 -7.671875 2.265625 -8.328125 C 2.265625 -8.972656 2.46875 -9.507812 2.875 -9.9375 C 3.28125 -10.351562 3.820312 -10.5625 4.5 -10.5625 C 5.144531 -10.5625 5.675781 -10.363281 6.09375 -9.96875 C 6.507812 -9.5625 6.71875 -9.039062 6.71875 -8.40625 C 6.71875 -7.726562 6.320312 -7.066406 5.53125 -6.421875 C 5.3125 -6.234375 5.109375 -6.0625 4.921875 -5.90625 L 7.0625 -3.171875 C 7.257812 -3.410156 7.457031 -3.65625 7.65625 -3.90625 L 8.234375 -4.640625 Z M 9.109375 -4.0625 "/></g></g></g><g fill="#ffffff" fill-opacity="1"><g transform="translate(194.740972, 200.931901)"><g><path d="M 7.953125 -2.90625 C 7.953125 -2.476562 7.851562 -2.070312 7.65625 -1.6875 C 7.457031 -1.300781 7.195312 -0.984375 6.875 -0.734375 C 6.238281 -0.242188 5.390625 0 4.328125 0 L 1.140625 0 L 1.140625 -10.40625 L 3.96875 -10.40625 C 5.488281 -10.40625 6.476562 -9.9375 6.9375 -9 C 7.101562 -8.664062 7.1875 -8.328125 7.1875 -7.984375 C 7.1875 -7.628906 7.160156 -7.359375 7.109375 -7.171875 C 7.046875 -6.960938 6.960938 -6.765625 6.859375 -6.578125 C 6.617188 -6.179688 6.316406 -5.898438 5.953125 -5.734375 C 6.566406 -5.578125 7.050781 -5.253906 7.40625 -4.765625 C 7.769531 -4.265625 7.953125 -3.644531 7.953125 -2.90625 Z M 6.109375 -7.8125 C 6.109375 -8.863281 5.394531 -9.390625 3.96875 -9.390625 L 2.21875 -9.390625 L 2.21875 -6.140625 L 4.265625 -6.140625 C 4.816406 -6.140625 5.265625 -6.273438 5.609375 -6.546875 C 5.941406 -6.828125 6.109375 -7.25 6.109375 -7.8125 Z M 6.875 -3.109375 C 6.875 -3.410156 6.816406 -3.679688 6.703125 -3.921875 C 6.578125 -4.148438 6.425781 -4.351562 6.25 -4.53125 C 5.84375 -4.882812 5.363281 -5.0625 4.8125 -5.0625 L 2.21875 -5.0625 L 2.21875 -1.03125 L 4.640625 -1.03125 C 5.296875 -1.03125 5.832031 -1.21875 6.25 -1.59375 C 6.664062 -1.976562 6.875 -2.484375 6.875 -3.109375 Z M 6.875 -3.109375 "/></g></g></g><g fill="#ffffff" fill-opacity="1"><g transform="translate(205.210095, 200.931901)"><g><path d="M 7.328125 0 L 1.140625 0 L 1.140625 -10.40625 L 7.328125 -10.40625 L 7.328125 -9.421875 L 2.21875 -9.421875 L 2.21875 -5.71875 L 7.1875 -5.71875 L 7.1875 -4.703125 L 2.21875 -4.703125 L 2.21875 -1 L 7.328125 -1 Z M 7.328125 0 "/></g></g></g><g fill="#ffffff" fill-opacity="1"><g transform="translate(215.908786, 200.931901)"><g><path d="M 7.328125 0 L 1.140625 0 L 1.140625 -10.40625 L 7.328125 -10.40625 L 7.328125 -9.421875 L 2.21875 -9.421875 L 2.21875 -5.71875 L 7.1875 -5.71875 L 7.1875 -4.703125 L 2.21875 -4.703125 L 2.21875 -1 L 7.328125 -1 Z M 7.328125 0 "/></g></g></g><g fill="#ffffff" fill-opacity="1"><g transform="translate(226.607478, 200.931901)"><g><path d="M 2.21875 -5.140625 L 4.640625 -5.140625 C 5.242188 -5.140625 5.738281 -5.34375 6.125 -5.75 C 6.519531 -6.175781 6.71875 -6.691406 6.71875 -7.296875 C 6.71875 -7.898438 6.53125 -8.398438 6.15625 -8.796875 C 5.78125 -9.191406 5.273438 -9.390625 4.640625 -9.390625 L 2.21875 -9.390625 Z M 7.796875 -7.265625 C 7.796875 -6.359375 7.472656 -5.601562 6.828125 -5 C 6.253906 -4.46875 5.566406 -4.179688 4.765625 -4.140625 L 7.96875 0 L 6.515625 0 L 3.46875 -4.125 L 2.21875 -4.125 L 2.21875 0 L 1.140625 0 L 1.140625 -10.40625 L 4.484375 -10.40625 C 5.410156 -10.40625 6.191406 -10.117188 6.828125 -9.546875 C 7.472656 -8.929688 7.796875 -8.171875 7.796875 -7.265625 Z M 7.796875 -7.265625 "/></g></g></g></svg>